<svg id="Capa_1" enable-background="new 0 0 512 512" height="512" viewBox="0 0 512 512" width="512" xmlns="http://www.w3.org/2000/svg"><g><g><path style="fill: #c7ea46;" d="m453.324 194.709h-129.322c-4.142 0-7.499 3.358-7.499 7.499s3.358 7.499 7.499 7.499h129.323c4.142 0 7.499-3.358 7.499-7.499s-3.358-7.499-7.5-7.499z"/><path style="fill: #c7ea46;"  d="m453.324 239.922h-129.322c-4.142 0-7.499 3.358-7.499 7.499s3.358 7.499 7.499 7.499h129.323c4.142 0 7.499-3.358 7.499-7.499s-3.358-7.499-7.5-7.499z"/><path style="fill: #c7ea46;"  d="m460.824 292.634c0-4.142-3.358-7.499-7.499-7.499h-129.323c-4.142 0-7.499 3.358-7.499 7.499s3.358 7.499 7.499 7.499h129.323c4.141.001 7.499-3.357 7.499-7.499z"/><path style="fill: #c7ea46;" d="m324.002 330.348c-4.142 0-7.499 3.358-7.499 7.499s3.358 7.499 7.499 7.499h64.661c4.142 0 7.499-3.358 7.499-7.499s-3.358-7.499-7.499-7.499z"/><path style="fill: #c7ea46;"  d="m498.619 88.191-77.321-77.321c-6.87-6.875-16.283-10.87-26.24-10.87h-254.439c-20.46 0-37.105 16.646-37.105 37.106v76.781c0 4.142 3.358 7.499 7.499 7.499s7.499-3.358 7.499-7.499v-76.781c0-12.19 9.917-22.107 22.107-22.107h254.439c1.618 0 3.209.173 4.764.516v68.296c0 14.256 11.598 25.854 25.854 25.854h68.288c.346 1.565.523 3.168.523 4.764v360.466c0 12.189-9.917 22.107-22.107 22.107h-100.748c8.769-13.111 7.373-31.055-4.195-42.623l-68.185-68.185c-4.966-4.966-12.195-6.3-18.396-4.038l-14.68-14.68c41.416-57.512 35.309-137.086-15.341-187.737-56.213-56.212-148.443-57.332-205.774 0-56.732 56.732-56.732 149.042 0 205.774 50.606 50.607 130.256 56.622 187.732 15.336l14.685 14.685c-2.262 6.201-.928 13.43 4.039 18.396l63.072 63.072h-173.97c-12.189 0-22.107-9.917-22.107-22.107v-24.035c0-4.142-3.358-7.499-7.499-7.499s-7.499 3.358-7.499 7.499v24.035c0 20.46 16.646 37.105 37.105 37.105h331.762c20.46 0 37.106-16.646 37.106-37.105v-360.466c0-9.732-3.862-19.237-10.868-26.238zm-442.951 286.716c-50.884-50.884-50.884-133.678 0-184.563 51.532-51.532 134.24-50.322 184.563 0 46.854 46.855 51.219 121.3 10.152 173.166-6.304 7.961-13.579 15.239-21.549 21.549-51.535 40.803-126.163 36.851-173.166-10.152zm188.936 16.484c4.241-3.775 8.286-7.812 12.137-12.139l12.35 12.35-12.167 12.167-12.349-12.35c.01-.01.019-.02.029-.028zm85.703 100.117-68.184-68.184c-.977-.977-.979-2.564 0-3.544l.099-.099c.002-.002.004-.003.005-.005l22.877-22.877c.976-.977 2.567-.977 3.544 0l68.184 68.185c7.312 7.313 7.312 19.211 0 26.524-7.331 7.33-19.194 7.33-26.525 0zm84.514-407.697v-58.207l69.062 69.062h-58.206c-5.987 0-10.856-4.87-10.856-10.855z"/><path style="fill: #c7ea46;"  d="m315.372 48.663h-148.787c-8.894 0-16.13 7.236-16.13 16.13v28.743c0 8.894 7.236 16.13 16.13 16.13h148.787c8.894 0 16.13-7.236 16.13-16.13v-28.743c-.001-8.894-7.237-16.13-16.13-16.13zm1.13 44.872c0 .623-.507 1.131-1.131 1.131h-148.786c-.623 0-1.131-.507-1.131-1.131v-28.742c0-.623.507-1.131 1.131-1.131h148.787c.624 0 1.131.507 1.131 1.131v28.742z"/><path style="fill: #c7ea46;"  d="m229.688 364.365c45.072-45.071 45.072-118.408 0-163.479-45.072-45.072-118.407-45.072-163.479 0-17.536 17.537-28.782 39.726-32.522 64.17-.626 4.094 2.184 7.921 6.279 8.547 4.096.629 7.921-2.184 8.547-6.279 3.254-21.264 13.04-40.571 28.301-55.833 39.223-39.223 103.044-39.223 142.268 0 37.634 37.634 39.152 97.91 4.567 137.379-3.294-6.703-8.897-12.161-16.225-15.387-8.884-3.911-24.2-6.397-33.621-7.639l-.04-9.47c9.104-6.703 15.566-16.819 17.423-28.523 1.601-.665 3.07-1.648 4.328-2.915 2.511-2.528 3.88-5.881 3.857-9.442-.067-9.939-.058-26.412-.058-36.008 0-9.075-6.612-16.636-15.271-18.119-1.662-8.438-9.117-14.822-18.036-14.822h-36.203c-18.663 0-33.847 15.183-33.847 33.846v35.243c0 5.471 3.339 10.177 8.086 12.188 1.815 11.347 7.956 21.207 16.627 27.912l.044 10.333c-9.41 1.321-24.704 3.936-33.557 7.922-6.732 3.033-11.993 8.176-15.231 14.509-11.99-13.802-19.929-30.441-23.077-48.535-.71-4.08-4.594-6.813-8.674-6.103-4.081.71-6.813 4.594-6.103 8.674 4.092 23.514 15.205 44.894 32.139 61.829 45.269 45.272 118.606 44.876 163.478.002zm-99.885-142.82h36.203c1.866 0 3.384 1.518 3.384 3.384 0 6.162 5.013 11.175 11.175 11.175h.367c1.866 0 3.384 1.518 3.384 3.384v4.025l-9.065-.85c-8.88-.831-17.962 1.275-25.57 5.934-4.173 2.555-8.965 3.906-13.858 3.906h-24.867v-12.109c-.001-10.394 8.454-18.849 18.847-18.849zm-18.848 52.488v-6.533h24.867c7.66 0 15.16-2.115 21.692-6.115 4.86-2.977 10.662-4.323 16.335-3.791l10.47.982c.006 4.619.018 10.713.044 15.429-4.175.733-7.424 4.252-7.679 8.612-.893 15.334-13.653 27.345-29.049 27.345-15.364 0-28.143-12.001-29.094-27.323-.268-4.318-3.467-7.815-7.586-8.606zm36.68 50.928c3.851 0 7.59-.506 11.16-1.439l.018 4.182c.008 1.94.453 3.791 1.241 5.455-3.729 2.516-8.146 3.904-12.777 3.918-.023 0-.046 0-.069 0-4.588 0-8.972-1.351-12.688-3.814.774-1.671 1.208-3.523 1.2-5.463l-.019-4.484c3.802 1.071 7.806 1.645 11.934 1.645zm-63.967 35.043c1.089-5.487 4.592-10.06 9.646-12.338 5.102-2.297 14.929-4.604 27.305-6.432 7.07 6.939 16.537 10.841 26.586 10.841h.114c10.124-.03 19.642-4.016 26.704-11.066 12.392 1.724 22.238 3.947 27.359 6.202 5.739 2.526 9.449 7.338 10.358 13.202-37.113 30.482-91.109 30.343-128.072-.409z"/></g></g></svg>