<?xml version="1.0" encoding="UTF-8"?>
<!DOCTYPE svg PUBLIC "-//W3C//DTD SVG 1.1//EN" "http://www.w3.org/Graphics/SVG/1.1/DTD/svg11.dtd">
<!-- Creator: CorelDRAW 2018 -->
<svg xmlns="http://www.w3.org/2000/svg" xml:space="preserve" width="2.30315in" height="2.34352in" version="1.1" style="shape-rendering:geometricPrecision; text-rendering:geometricPrecision; image-rendering:optimizeQuality; fill-rule:evenodd; clip-rule:evenodd"
viewBox="0 0 2298.97 2339.27"
 xmlns:xlink="http://www.w3.org/1999/xlink">
 <defs>
  <style type="text/css">
   <![CDATA[
    .fil1 {fill:url(#id0)}
    .fil2 {fill:url(#id1)}
    .fil0 {fill:url(#id2)}
   ]]>
  </style>
  <linearGradient id="id0" gradientUnits="userSpaceOnUse" x1="-0" y1="1169.63" x2="2298.97" y2="1169.63">
   <stop offset="0" style="stop-opacity:1; stop-color:#3D49ED"/>
   <stop offset="1" style="stop-opacity:1; stop-color:#AC53FB"/>
  </linearGradient>
  <linearGradient id="id1" gradientUnits="userSpaceOnUse" xlink:href="#id0" x1="673.9" y1="602.84" x2="1625.1" y2="602.84">
  </linearGradient>
  <linearGradient id="id2" gradientUnits="userSpaceOnUse" xlink:href="#id0" x1="596.65" y1="1568.8" x2="1702.31" y2="1568.8">
  </linearGradient>
 </defs>
 <g id="Layer_x0020_1">
  <metadata id="CorelCorpID_0Corel-Layer"/>
  <g id="_-2129026096">
   <path class="fil0" d="M778.18 901.45l-177.21 545.13c-7.95,24.73 -4.83,51.75 8.69,73.97l463.72 759.88c3.93,6.33 8.75,11.93 14.08,16.89 2.24,0.11 4.49,0.23 6.73,0.33l-0.02 -759.53c-72.67,-23.5 -125.72,-90.92 -125.72,-171.48 0,-99.88 81.05,-181.02 181.02,-181.02 99.98,0 181.02,81.14 181.02,181.02 0,80.56 -52.89,148.14 -125.76,171.48l0 759.53c2.23,-0.1 4.46,-0.22 6.69,-0.33 5.34,-4.97 10.2,-10.56 14.17,-16.91l463.72 -759.88c13.44,-22.25 16.66,-49.22 8.67,-73.95l-177.1 -545.13c-11.96,-36.69 -46.18,-61.52 -84.79,-61.52l-573.12 0c-38.62,0 -72.84,24.93 -84.79,61.52z"/>
   <path class="fil1" d="M195.45 1149.48c0,-526.9 427.14,-954.03 954.03,-954.03 526.9,0 954.03,427.14 954.03,954.03 0,459.56 -324.95,843.24 -757.61,933.79l-105.04 172.12 -182.77 0 -105.03 -172.11c-432.67,-90.55 -757.62,-474.22 -757.62,-933.79zm1112.79 1138.52c559.7,-77.33 990.73,-557.56 990.73,-1138.52 0,-634.84 -514.64,-1149.48 -1149.48,-1149.48 -634.84,0 -1149.48,514.64 -1149.48,1149.48 0,580.96 431.01,1061.17 990.69,1138.52l0 51.27 317.55 0 0 -51.26z"/>
   <path class="fil2" d="M673.9 539.21l0 127.37c0,49.23 39.97,89.15 89.15,89.15l772.85 0c49.24,0 89.19,-39.89 89.19,-89.13l0 -127.38c0,-49.24 -39.95,-89.25 -89.19,-89.25l-772.85 0c-49.18,0 -89.15,40.01 -89.15,89.25z"/>
  </g>
 </g>
</svg>
