<?xml version="1.0" encoding="UTF-8"?>
<!DOCTYPE svg PUBLIC "-//W3C//DTD SVG 1.1//EN" "http://www.w3.org/Graphics/SVG/1.1/DTD/svg11.dtd">
<!-- Creator: CorelDRAW 2018 -->
<svg xmlns="http://www.w3.org/2000/svg" xml:space="preserve" width="0.763472in" height="0.954043in" version="1.1" style="shape-rendering:geometricPrecision; text-rendering:geometricPrecision; image-rendering:optimizeQuality; fill-rule:evenodd; clip-rule:evenodd"
viewBox="0 0 75.63 94.51"
 xmlns:xlink="http://www.w3.org/1999/xlink">
 <defs>
  <style type="text/css">
   <![CDATA[
    .fil0 {fill:#073669;fill-rule:nonzero}
   ]]>
  </style>
 </defs>
 <g id="__x0023_Layer_x0020_1">
  <metadata id="CorelCorpID_0Corel-Layer"/>
  <path class="fil0" d="M66.85 37.85l0 -8.81c0,-16.01 -13.02,-29.04 -29.04,-29.04 -16.01,0 -29.04,13.02 -29.04,29.04l0 8.81c-4.9,0.34 -8.78,4.38 -8.78,9.36l0 37.87c0,5.2 4.22,9.42 9.42,9.42l56.78 0c5.21,0 9.42,-4.22 9.42,-9.42l0 -37.87c0,-4.98 -3.88,-9.02 -8.78,-9.36zm-24.98 31.22l0 0 0 10.58c0,2.24 -1.81,4.05 -4.05,4.05 -2.24,0 -4.05,-1.81 -4.05,-4.05l0 -10.58c-2.41,-1.4 -4.05,-3.99 -4.05,-6.98 0,-4.48 3.63,-8.1 8.1,-8.1 4.48,0 8.1,3.63 8.1,8.1 0,2.99 -1.64,5.57 -4.05,6.98zm14.88 -31.29l0 0 -37.87 0 0 -8.75c0,-10.44 8.49,-18.94 18.94,-18.94 10.44,0 18.94,8.49 18.94,18.94l0 8.75z"/>
 </g>
</svg>
