<?xml version="1.0" encoding="UTF-8"?>
<!DOCTYPE svg PUBLIC "-//W3C//DTD SVG 1.1//EN" "http://www.w3.org/Graphics/SVG/1.1/DTD/svg11.dtd">
<!-- Creator: CorelDRAW 2018 -->
<svg xmlns="http://www.w3.org/2000/svg" xml:space="preserve" width="17.0243in" height="20.6895in" version="1.1" style="shape-rendering:geometricPrecision; text-rendering:geometricPrecision; image-rendering:optimizeQuality; fill-rule:evenodd; clip-rule:evenodd"
viewBox="0 0 6115.87 7432.58"
 xmlns:xlink="http://www.w3.org/1999/xlink">
 <defs>
  <style type="text/css">
   <![CDATA[
    .str0 {stroke:#073669;stroke-width:19.96;stroke-miterlimit:10}
    .fil27 {fill:none;fill-rule:nonzero}
    .fil8 {fill:#073669}
    .fil6 {fill:#C6DAF1}
    .fil16 {fill:#D1D4EA}
    .fil9 {fill:#EFF3FF}
    .fil7 {fill:white}
    .fil25 {fill:#033F75;fill-rule:nonzero}
    .fil1 {fill:#073669;fill-rule:nonzero}
    .fil22 {fill:#111A33;fill-rule:nonzero}
    .fil14 {fill:#11345D;fill-rule:nonzero}
    .fil24 {fill:#1A2750;fill-rule:nonzero}
    .fil19 {fill:#9EBADB;fill-rule:nonzero}
    .fil5 {fill:#C6DAF1;fill-rule:nonzero}
    .fil18 {fill:#C8E6EB;fill-rule:nonzero}
    .fil10 {fill:#D2E6F8;fill-rule:nonzero}
    .fil21 {fill:#F19954;fill-rule:nonzero}
    .fil20 {fill:#FBAE6E;fill-rule:nonzero}
    .fil12 {fill:white;fill-rule:nonzero}
    .fil4 {fill:black;fill-rule:nonzero;fill-opacity:0.101961}
    .fil3 {fill:#C6DAFB;fill-rule:nonzero;fill-opacity:0.470588}
    .fil17 {fill:url(#id0)}
    .fil29 {fill:url(#id1);fill-rule:nonzero}
    .fil23 {fill:url(#id2);fill-rule:nonzero}
    .fil13 {fill:url(#id3);fill-rule:nonzero}
    .fil28 {fill:url(#id4);fill-rule:nonzero}
    .fil15 {fill:url(#id5);fill-rule:nonzero}
    .fil26 {fill:url(#id6);fill-rule:nonzero}
    .fil11 {fill:url(#id7);fill-rule:nonzero}
    .fil0 {fill:url(#id8);fill-rule:nonzero;fill-opacity:0.439216}
    .fil2 {fill:url(#id9);fill-rule:nonzero;fill-opacity:0.439216}
   ]]>
  </style>
  <linearGradient id="id0" gradientUnits="userSpaceOnUse" x1="4552.42" y1="1627.53" x2="6086.31" y2="1627.53">
   <stop offset="0" style="stop-opacity:1; stop-color:#AE52FB"/>
   <stop offset="1" style="stop-opacity:1; stop-color:#3B48EC"/>
  </linearGradient>
  <linearGradient id="id1" gradientUnits="userSpaceOnUse" xlink:href="#id0" x1="1130.6" y1="1424.5" x2="1564.45" y2="1424.5">
  </linearGradient>
  <linearGradient id="id2" gradientUnits="userSpaceOnUse" xlink:href="#id0" x1="1890.35" y1="5468.24" x2="2177.89" y2="5468.24">
  </linearGradient>
  <linearGradient id="id3" gradientUnits="userSpaceOnUse" xlink:href="#id0" x1="1992.29" y1="3550.33" x2="2497.88" y2="3550.33">
  </linearGradient>
  <linearGradient id="id4" gradientUnits="userSpaceOnUse" xlink:href="#id0" x1="5234.18" y1="379.28" x2="5396.4" y2="379.28">
  </linearGradient>
  <linearGradient id="id5" gradientUnits="userSpaceOnUse" xlink:href="#id0" x1="3251.19" y1="4308.8" x2="4450.43" y2="4308.8">
  </linearGradient>
  <linearGradient id="id6" gradientUnits="userSpaceOnUse" xlink:href="#id0" x1="2215.95" y1="588.16" x2="2436.35" y2="588.16">
  </linearGradient>
  <linearGradient id="id7" gradientUnits="userSpaceOnUse" xlink:href="#id0" x1="1978.81" y1="4396.62" x2="2757.68" y2="4396.62">
  </linearGradient>
  <linearGradient id="id8" gradientUnits="userSpaceOnUse" xlink:href="#id0" x1="2123.43" y1="6312.19" x2="3253.57" y2="6312.19">
  </linearGradient>
  <linearGradient id="id9" gradientUnits="userSpaceOnUse" xlink:href="#id0" x1="3079.67" y1="5756.07" x2="3860.5" y2="5756.07">
  </linearGradient>
 </defs>
 <g id="__x0023_Layer_x0020_1">
  <metadata id="CorelCorpID_0Corel-Layer"/>
  <g id="_1885990736">
   <path class="fil0" d="M2358.21 6188.07l-171.53 -26.54 -63.24 136.27 171.61 26.55c2.88,31.31 16.96,62.32 42.15,90.92l-125.58 72.51 172.78 99.76 125.58 -72.51c49.53,14.54 103.25,22.67 157.48,24.33l45.98 99.08 236.02 -36.51 -45.96 -99.03c22.52,-8.48 43.89,-18.4 63.66,-29.82 19.77,-11.41 36.96,-23.75 51.65,-36.75l171.53 26.54 63.24 -136.27 -171.61 -26.55c-2.88,-31.31 -16.96,-62.32 -42.14,-90.92l125.58 -72.51 -172.78 -99.76 -125.58 72.51c-49.53,-14.54 -103.25,-22.67 -157.48,-24.33l-45.98 -99.08 -236.02 36.51 45.96 99.03c-22.52,8.48 -43.89,18.4 -63.66,29.82 -19.77,11.42 -36.96,23.75 -51.65,36.75zm190.27 43.28l0 0c77.33,-44.65 202.71,-44.65 280.04,0 77.33,44.65 77.33,117.03 0,161.68 -77.33,44.65 -202.71,44.65 -280.04,0 -77.33,-44.65 -77.33,-117.03 -0,-161.68z"/>
   <path class="fil1" d="M2526.32 6377.76c-54.23,-44.6 -46.88,-106.55 22.16,-146.41 77.33,-44.65 202.71,-44.65 280.03,0 61.66,35.6 74.1,88.82 37.43,131.57 -9.32,-10.87 -21.76,-21.06 -37.43,-30.11 -77.33,-44.65 -202.71,-44.65 -280.03,-0 -15.67,9.05 -28.11,19.25 -37.43,30.11 4.39,5.12 9.49,10.07 15.27,14.84z"/>
   <path class="fil1" d="M2967.15 6473.07c19.77,-11.41 36.96,-23.75 51.65,-36.75l171.53 26.54 62.81 -135.33 0.44 0.07 -0.44 0.94 0.44 0.07 -0.44 0.94 0.44 0.07 -0.44 0.94 0.44 0.07 -0.44 0.94 0.44 0.07 -0.44 0.94 0.44 0.07 -0.44 0.94 0.44 0.07 -0.44 0.94 0.44 0.07 -0.44 0.94 0.44 0.07 -0.44 0.94 0.44 0.07 -0.44 0.93 0.44 0.07 -0.44 0.94 0.44 0.07 -0.44 0.94 0.44 0.07 -0.44 0.94 0.44 0.07 -0.44 0.94 0.44 0.07 -0.44 0.94 0.44 0.07 -0.44 0.94 0.44 0.07 -0.44 0.94 0.44 0.07 -0.44 0.94 0.44 0.07 -0.44 0.94 0.44 0.07 -0.44 0.94 0.44 0.07 -0.44 0.94 0.44 0.07 -0.44 0.94 0.44 0.07 -0.44 0.94 0.44 0.07 -0.44 0.94 0.44 0.07 -0.44 0.94 0.44 0.07 -0.44 0.94 0.44 0.07 -0.44 0.94 0.44 0.07 -0.44 0.94 0.44 0.07 -0.44 0.94 0.44 0.07 -0.44 0.94 0.44 0.07 -0.44 0.94 0.44 0.07 -0.44 0.94 0.44 0.07 -0.44 0.94 0.44 0.07 -0.44 0.94 0.44 0.07 -0.44 0.94 0.44 0.07 -0.44 0.94 0.44 0.07 -0.44 0.94 0.44 0.07 -0.44 0.94 0.44 0.07 -0.44 0.94 0.44 0.07 -0.44 0.94 0.44 0.07 -0.44 0.94 0.44 0.07 -0.44 0.94 0.44 0.07 -0.44 0.94 0.44 0.07 -0.44 0.94 0.44 0.07 -0.44 0.94 0.44 0.07 -0.44 0.94 0.44 0.07 -0.44 0.94 0.44 0.07 -0.44 0.94 0.44 0.07 -0.44 0.94 0.44 0.07 -0.44 0.94 0.44 0.07 -0.44 0.94 0.44 0.07 -0.44 0.94 0.44 0.07 -0.44 0.94 0.44 0.07 -0.44 0.94 0.44 0.07 -0.44 0.94 0.44 0.07 -0.44 0.94 0.44 0.07 -0.44 0.94 0.44 0.07 -0.44 0.94 0.44 0.07 -0.44 0.94 0.44 0.07 -0.44 0.94 0.44 0.07 -0.44 0.94 0.44 0.07 -0.44 0.94 0.44 0.07 -0.44 0.94 0.44 0.07 -0.44 0.94 0.44 0.07 -0.44 0.94 0.44 0.07 -0.44 0.94 0.44 0.07 -0.44 0.94 0.44 0.07 -0.44 0.94 0.44 0.07 -0.44 0.94 0.44 0.07 -0.44 0.94 0.44 0.07 -0.44 0.94 0.44 0.07 -0.44 0.94 0.44 0.07 -0.44 0.94 0.44 0.07 -0.44 0.94 0.44 0.07 -0.44 0.94 0.44 0.07 -0.44 0.94 0.44 0.07 -0.44 0.94 0.44 0.07 -0.44 0.94 0.44 0.07 -0.44 0.94 0.44 0.07 -0.44 0.94 0.44 0.07 -0.44 0.94 0.44 0.07 -0.44 0.94 0.44 0.07 -0.44 0.94 0.44 0.07 -0.44 0.94 0.44 0.07 -0.44 0.94 0.44 0.07 -0.44 0.94 0.44 0.07 -0.44 0.94 0.44 0.07 -0.44 0.94 0.44 0.07 -0.44 0.94 0.44 0.07 -0.44 0.94 0.44 0.07 -0.44 0.94 0.44 0.07 -0.44 0.94 0.44 0.07 -0.44 0.94 0.44 0.07 -0.44 0.94 0.44 0.07 -0.44 0.94 0.44 0.07 -0.44 0.94 0.44 0.07 -0.44 0.94 0.44 0.07 -0.44 0.94 0.44 0.07 -0.44 0.94 0.44 0.07 -0.44 0.94 0.44 0.07 -63.24 136.27 -171.53 -26.54c-14.69,13 -31.88,25.34 -51.65,36.75 -7.88,4.55 -16.08,8.79 -24.44,12.87l6.74 14.52 -45.96 -99.03c22.52,-8.48 43.89,-18.4 63.66,-29.82z"/>
   <path class="fil1" d="M2384.38 6587.53l125.58 -72.51c49.53,14.54 103.25,22.67 157.48,24.33l45.98 99.08 236.02 -36.51 -0.43 0.07 0.43 0.94 -0.43 0.07 0.43 0.94 -0.43 0.07 0.43 0.94 -0.43 0.07 0.43 0.94 -0.43 0.07 0.43 0.94 -0.43 0.07 0.43 0.94 -0.43 0.07 0.43 0.94 -0.43 0.07 0.43 0.94 -0.43 0.07 0.43 0.94 -0.43 0.07 0.43 0.94 -0.43 0.07 0.43 0.94 -0.43 0.07 0.43 0.94 -0.43 0.07 0.43 0.94 -0.43 0.07 0.43 0.94 -0.43 0.07 0.43 0.94 -0.43 0.07 0.43 0.94 -0.43 0.07 0.43 0.94 -0.43 0.07 0.43 0.94 -0.43 0.07 0.43 0.94 -0.43 0.07 0.43 0.94 -0.43 0.07 0.43 0.94 -0.43 0.07 0.43 0.94 -0.43 0.07 0.43 0.94 -0.43 0.07 0.43 0.94 -0.43 0.07 0.43 0.94 -0.43 0.07 0.43 0.94 -0.43 0.07 0.43 0.94 -0.43 0.07 0.43 0.94 -0.43 0.07 0.43 0.94 -0.43 0.07 0.43 0.94 -0.43 0.07 0.43 0.94 -0.43 0.07 0.43 0.94 -0.43 0.07 0.43 0.94 -0.43 0.07 0.43 0.94 -0.43 0.07 0.43 0.94 -0.43 0.07 0.43 0.94 -0.43 0.07 0.43 0.94 -0.43 0.07 0.43 0.94 -0.43 0.07 0.43 0.94 -0.43 0.07 0.43 0.94 -0.43 0.07 0.43 0.94 -0.43 0.07 0.43 0.94 -0.43 0.07 0.43 0.94 -0.43 0.07 0.43 0.94 -0.43 0.07 0.43 0.94 -0.43 0.07 0.43 0.94 -0.43 0.07 0.43 0.94 -0.43 0.07 0.43 0.94 -0.43 0.07 0.43 0.94 -0.43 0.07 0.43 0.94 -0.43 0.07 0.43 0.94 -0.43 0.07 0.43 0.94 -0.43 0.07 0.43 0.94 -0.43 0.07 0.43 0.94 -0.43 0.07 0.43 0.94 -0.43 0.07 0.43 0.94 -0.43 0.07 0.43 0.94 -0.43 0.07 0.43 0.94 -0.43 0.07 0.43 0.94 -0.43 0.07 0.43 0.94 -0.43 0.07 0.43 0.94 -0.43 0.07 0.43 0.94 -0.43 0.07 0.43 0.94 -0.43 0.07 0.43 0.94 -0.43 0.07 0.43 0.94 -0.43 0.07 0.43 0.94 -0.43 0.07 0.43 0.94 -0.43 0.07 0.43 0.94 -0.43 0.07 0.43 0.94 -0.43 0.07 0.43 0.94 -0.43 0.07 0.43 0.94 -0.43 0.07 0.43 0.94 -0.43 0.07 0.43 0.94 -0.43 0.07 0.43 0.94 -0.43 0.07 0.43 0.94 -0.43 0.07 0.43 0.94 -0.43 0.07 0.43 0.94 -0.43 0.07 0.43 0.94 -0.43 0.07 0.43 0.94 -0.43 0.07 0.43 0.94 -0.43 0.07 0.43 0.94 -0.43 0.07 0.43 0.94 -0.43 0.07 0.43 0.93 -0.43 0.07 0.43 0.94 -0.43 0.07 0.43 0.94 -0.43 0.07 0.43 0.94 -0.43 0.07 0.43 0.94 -0.43 0.07 0.43 0.94 -0.43 0.07 0.43 0.94 -0.43 0.07 0.43 0.94 -0.43 0.07 0.43 0.94 -0.43 0.07 0.43 0.94 -0.43 0.07 0.43 0.94 -0.43 0.07 0.43 0.94 -0.43 0.07 0.43 0.94 -0.43 0.07 0.43 0.94 -0.43 0.07 0.43 0.94 -0.43 0.07 0.43 0.94 -0.43 0.07 0.43 0.94 -0.43 0.07 0.43 0.94 -0.43 0.07 0.43 0.94 -236.02 36.51 -45.98 -99.08c-54.23,-1.67 -107.94,-9.79 -157.48,-24.33l-125.58 72.5 -172.78 -99.75 0.87 -0.5 -0.87 -0.5 0.87 -0.5 -0.87 -0.5 0.87 -0.5 -0.87 -0.5 0.87 -0.5 -0.87 -0.5 0.87 -0.5 -0.87 -0.5 0.87 -0.5 -0.87 -0.5 0.87 -0.5 -0.87 -0.5 0.87 -0.5 -0.87 -0.5 0.87 -0.5 -0.87 -0.5 0.87 -0.5 -0.87 -0.5 0.87 -0.5 -0.87 -0.5 0.87 -0.5 -0.87 -0.5 0.87 -0.5 -0.87 -0.5 0.87 -0.5 -0.87 -0.5 0.87 -0.5 -0.87 -0.5 0.87 -0.5 -0.87 -0.5 0.87 -0.5 -0.87 -0.5 0.87 -0.5 -0.87 -0.5 0.87 -0.5 -0.87 -0.5 0.87 -0.5 -0.87 -0.5 0.87 -0.5 -0.87 -0.5 0.87 -0.5 -0.87 -0.5 0.87 -0.5 -0.87 -0.5 0.87 -0.5 -0.87 -0.5 0.87 -0.5 -0.87 -0.5 0.87 -0.5 -0.87 -0.5 0.87 -0.5 -0.87 -0.5 0.87 -0.5 -0.87 -0.5 0.87 -0.5 -0.87 -0.5 0.87 -0.5 -0.87 -0.5 0.87 -0.5 -0.87 -0.5 0.87 -0.5 -0.87 -0.5 0.87 -0.5 -0.87 -0.5 0.87 -0.5 -0.87 -0.5 0.87 -0.5 -0.87 -0.5 0.87 -0.5 -0.87 -0.5 0.87 -0.5 -0.87 -0.5 0.87 -0.5 -0.87 -0.5 0.87 -0.5 -0.87 -0.5 0.87 -0.5 -0.87 -0.5 0.87 -0.5 -0.87 -0.5 0.87 -0.5 -0.87 -0.5 0.87 -0.5 -0.87 -0.5 0.87 -0.5 -0.87 -0.5 0.87 -0.5 -0.87 -0.5 0.87 -0.5 -0.87 -0.5 0.87 -0.5 -0.87 -0.5 0.87 -0.5 -0.87 -0.5 0.87 -0.5 -0.87 -0.5 0.87 -0.5 -0.87 -0.5 0.87 -0.5 -0.87 -0.5 0.87 -0.5 -0.87 -0.5 0.87 -0.5 -0.87 -0.5 0.87 -0.5 -0.87 -0.5 0.87 -0.5 -0.87 -0.5 0.87 -0.5 -0.87 -0.5 0.87 -0.5 -0.87 -0.5 0.87 -0.5 -0.87 -0.5 0.87 -0.5 -0.87 -0.5 0.87 -0.5 -0.87 -0.5 0.87 -0.5 -0.87 -0.5 0.87 -0.5 -0.87 -0.5 0.87 -0.5 -0.87 -0.5 0.87 -0.5 -0.87 -0.5 0.87 -0.5 -0.87 -0.5 0.87 -0.5 -0.87 -0.5 0.87 -0.5 -0.87 -0.5 0.87 -0.5 -0.87 -0.5 0.87 -0.5 -0.87 -0.5 0.87 -0.5 -0.87 -0.5 0.87 -0.5 -0.87 -0.5 0.87 -0.5 -0.87 -0.5 0.87 -0.5 -0.87 -0.5 0.87 -0.5 -0.87 -0.5 0.87 -0.5 -0.87 -0.5 0.87 -0.5 -0.87 -0.5 0.87 -0.5 -0.87 -0.5 0.87 -0.5 -0.87 -0.5 0.87 -0.5 -0.87 -0.5 0.87 -0.5 -0.87 -0.5 0.87 -0.5 -0.87 -0.5 0.87 -0.5 -0.87 -0.5 0.87 -0.5 -0.87 -0.5 0.87 -0.5 -0.87 -0.5 0.87 -0.5 -0.87 -0.5 0.87 -0.5 -0.87 -0.5 0.87 -0.5 -0.87 -0.5 0.87 -0.5 -0.87 -0.5 0.87 -0.5 -0.87 -0.5 0.87 -0.5 -0.87 -0.5 0.87 -0.5 -0.87 -0.5 0.87 -0.5 -0.87 -0.5 0.87 -0.5 -0.87 -0.5 0.87 -0.5 -0.87 -0.5 0.87 -0.5 -0.87 -0.5 0.87 -0.5 -0.87 -0.5 0.87 -0.5 -0.87 -0.5 0.87 -0.5 -0.87 -0.5 0.87 -0.5 -0.87 -0.5 0.87 -0.5 -0.87 -0.5 0.87 -0.5 -0.87 -0.5 172.78 99.76z"/>
   <path class="fil1" d="M2123.87 6297.87l-0.44 -0.07 171.61 26.55c2.88,31.31 16.96,62.32 42.14,90.92l-40.31 23.27c-0.8,-4.24 -1.44,-8.48 -1.84,-12.74l-171.61 -26.55 0.44 -0.94 -0.44 -0.07 0.44 -0.94 -0.44 -0.07 0.44 -0.94 -0.44 -0.07 0.44 -0.94 -0.44 -0.07 0.44 -0.94 -0.44 -0.07 0.44 -0.94 -0.44 -0.07 0.44 -0.94 -0.44 -0.07 0.44 -0.94 -0.44 -0.07 0.44 -0.94 -0.44 -0.07 0.44 -0.94 -0.44 -0.07 0.44 -0.94 -0.44 -0.07 0.44 -0.94 -0.44 -0.07 0.44 -0.94 -0.44 -0.07 0.44 -0.94 -0.44 -0.07 0.44 -0.94 -0.44 -0.07 0.44 -0.94 -0.44 -0.07 0.44 -0.94 -0.44 -0.07 0.44 -0.94 -0.44 -0.07 0.44 -0.94 -0.44 -0.07 0.44 -0.94 -0.44 -0.07 0.44 -0.94 -0.44 -0.07 0.44 -0.94 -0.44 -0.07 0.44 -0.94 -0.44 -0.07 0.44 -0.94 -0.44 -0.07 0.44 -0.94 -0.44 -0.07 0.44 -0.94 -0.44 -0.07 0.44 -0.94 -0.44 -0.07 0.44 -0.94 -0.44 -0.07 0.44 -0.94 -0.44 -0.07 0.44 -0.94 -0.44 -0.07 0.44 -0.94 -0.44 -0.07 0.44 -0.94 -0.44 -0.07 0.44 -0.94 -0.44 -0.07 0.44 -0.94 -0.44 -0.07 0.44 -0.94 -0.44 -0.07 0.44 -0.94 -0.44 -0.07 0.44 -0.94 -0.44 -0.07 0.44 -0.94 -0.44 -0.07 0.44 -0.94 -0.44 -0.07 0.44 -0.94 -0.44 -0.07 0.44 -0.94 -0.44 -0.07 0.44 -0.94 -0.44 -0.07 0.44 -0.94 -0.44 -0.07 0.44 -0.94 -0.44 -0.07 0.44 -0.94 -0.44 -0.07 0.44 -0.94 -0.44 -0.07 0.44 -0.94 -0.44 -0.07 0.44 -0.94 -0.44 -0.07 0.44 -0.94 -0.44 -0.07 0.44 -0.94 -0.44 -0.07 0.44 -0.94 -0.44 -0.07 0.44 -0.94 -0.44 -0.07 0.44 -0.94 -0.44 -0.07 0.44 -0.94 -0.44 -0.07 0.44 -0.94 -0.44 -0.07 0.44 -0.94 -0.44 -0.07 0.44 -0.94 -0.44 -0.07 0.44 -0.94 -0.44 -0.07 0.44 -0.94 -0.44 -0.07 0.44 -0.94 -0.44 -0.07 0.44 -0.94 -0.44 -0.07 0.44 -0.94 -0.44 -0.07 0.44 -0.94 -0.44 -0.07 0.44 -0.94 -0.44 -0.07 0.44 -0.94 -0.44 -0.07 0.44 -0.94 -0.44 -0.07 0.44 -0.94 -0.44 -0.07 0.44 -0.94 -0.44 -0.07 0.44 -0.94 -0.44 -0.07 0.44 -0.94 -0.44 -0.07 0.44 -0.94 -0.44 -0.07 0.44 -0.94 -0.44 -0.07 0.44 -0.94 -0.44 -0.07 0.44 -0.94 -0.44 -0.07 0.44 -0.94 -0.44 -0.07 0.44 -0.94 -0.44 -0.07 0.44 -0.94 -0.44 -0.07 0.44 -0.94 -0.44 -0.07 0.44 -0.94 -0.44 -0.07 0.44 -0.94 -0.44 -0.07 0.44 -0.94 -0.44 -0.07 0.44 -0.94 -0.44 -0.07 0.44 -0.93 -0.44 -0.07 0.44 -0.94 -0.44 -0.07 0.44 -0.94 -0.44 -0.07 0.44 -0.94 -0.44 -0.07 0.44 -0.94 -0.44 -0.07 0.44 -0.94 -0.44 -0.07 0.44 -0.94 -0.44 -0.07 0.44 -0.94 -0.44 -0.07 0.44 -0.94 -0.44 -0.07 0.44 -0.94 -0.44 -0.07 0.44 -0.94 -0.44 -0.07 0.44 -0.94 -0.44 -0.07 0.44 -0.94 -0.44 -0.07 0.44 -0.94 -0.44 -0.07 0.44 -0.94 -0.44 -0.07 0.44 -0.94 -0.44 -0.07 0.44 -0.94 -0.44 -0.07 0.44 -0.94 -0.44 -0.07 0.44 -0.94z"/>
   <path class="fil1" d="M2434.29 6138.44l-6.74 -14.52 0.44 -0.07 -0.44 -0.94 0.43 -0.07 -0.43 -0.94 0.44 -0.07 -0.44 -0.94 0.44 -0.07 -0.44 -0.94 0.44 -0.07 -0.44 -0.94 0.44 -0.07 -0.44 -0.94 0.44 -0.07 -0.44 -0.94 0.43 -0.07 -0.43 -0.94 0.44 -0.07 -0.44 -0.94 0.44 -0.07 -0.44 -0.94 0.44 -0.07 -0.44 -0.94 0.44 -0.07 -0.44 -0.94 0.43 -0.07 -0.43 -0.94 0.44 -0.07 -0.44 -0.94 0.44 -0.07 -0.44 -0.94 0.44 -0.07 -0.44 -0.94 0.44 -0.07 -0.44 -0.94 0.43 -0.07 -0.43 -0.94 0.44 -0.07 -0.44 -0.94 0.44 -0.07 -0.44 -0.94 0.44 -0.07 -0.44 -0.94 0.44 -0.07 -0.44 -0.94 0.44 -0.07 -0.44 -0.94 0.43 -0.07 -0.43 -0.94 0.44 -0.07 -0.44 -0.94 0.44 -0.07 -0.44 -0.94 0.44 -0.07 -0.44 -0.94 0.44 -0.07 -0.44 -0.94 0.43 -0.07 -0.43 -0.94 0.44 -0.07 -0.44 -0.94 0.44 -0.07 -0.44 -0.94 0.44 -0.07 -0.44 -0.94 0.44 -0.07 -0.44 -0.94 0.43 -0.07 -0.43 -0.94 0.44 -0.07 -0.44 -0.94 0.44 -0.07 -0.44 -0.94 0.44 -0.07 -0.44 -0.94 0.44 -0.07 -0.44 -0.94 0.43 -0.07 -0.43 -0.94 0.44 -0.07 -0.44 -0.94 0.44 -0.07 -0.44 -0.94 0.44 -0.07 -0.44 -0.94 0.44 -0.07 -0.44 -0.94 0.44 -0.07 -0.44 -0.94 0.43 -0.07 -0.43 -0.94 0.44 -0.07 -0.44 -0.94 0.44 -0.07 -0.44 -0.94 0.44 -0.07 -0.44 -0.94 0.44 -0.07 -0.44 -0.94 0.43 -0.07 -0.43 -0.94 0.44 -0.07 -0.44 -0.94 0.44 -0.07 -0.44 -0.94 0.44 -0.07 -0.44 -0.94 0.44 -0.07 -0.44 -0.94 0.43 -0.07 -0.43 -0.94 0.44 -0.07 -0.44 -0.94 0.44 -0.07 -0.44 -0.94 0.44 -0.07 -0.44 -0.94 0.44 -0.07 -0.44 -0.94 0.43 -0.07 -0.43 -0.94 0.44 -0.07 -0.44 -0.94 0.44 -0.07 -0.44 -0.94 0.44 -0.07 -0.44 -0.94 0.44 -0.07 -0.44 -0.94 0.44 -0.07 -0.44 -0.94 0.43 -0.07 -0.43 -0.94 0.44 -0.07 -0.44 -0.94 0.44 -0.07 -0.44 -0.94 0.44 -0.07 -0.44 -0.94 0.44 -0.07 -0.44 -0.94 0.43 -0.07 -0.43 -0.94 0.44 -0.07 -0.44 -0.94 0.44 -0.07 -0.44 -0.94 0.44 -0.07 -0.44 -0.94 0.44 -0.07 -0.44 -0.94 0.43 -0.07 -0.43 -0.94 0.44 -0.07 -0.44 -0.94 0.44 -0.07 -0.44 -0.94 0.44 -0.07 -0.44 -0.94 0.44 -0.07 -0.44 -0.94 0.44 -0.07 -0.44 -0.94 0.43 -0.07 -0.43 -0.94 0.44 -0.07 -0.44 -0.94 0.44 -0.07 -0.44 -0.94 0.44 -0.07 -0.44 -0.94 0.44 -0.07 -0.44 -0.94 0.43 -0.07 -0.43 -0.94 0.44 -0.07 -0.44 -0.94 0.44 -0.07 -0.44 -0.94 0.44 -0.07 -0.44 -0.94 0.44 -0.07 -0.44 -0.94 0.43 -0.07 -0.43 -0.94 0.44 -0.07 -0.44 -0.94 0.44 -0.07 -0.44 -0.94 0.44 -0.07 -0.44 -0.94 0.44 -0.07 -0.44 -0.94 0.43 -0.07 -0.43 -0.94 0.44 -0.07 -0.44 -0.94 0.44 -0.07 -0.44 -0.94 0.44 -0.07 -0.44 -0.94 0.44 -0.07 45.53 98.1c-13.55,5.1 -26.62,10.8 -39.24,16.95 0.01,-0 0.01,-0.01 0.02,-0.01z"/>
   <path class="fil1" d="M3080.12 6287.3c-5.12,-26.95 -18.55,-53.47 -40.31,-78.18l125.58 -72.51 -0.87 0.5 0.87 0.5 -0.87 0.5 0.87 0.5 -0.87 0.5 0.87 0.5 -0.87 0.5 0.87 0.5 -0.87 0.5 0.87 0.5 -0.87 0.5 0.87 0.5 -0.87 0.5 0.87 0.5 -0.87 0.5 0.87 0.5 -0.87 0.5 0.87 0.5 -0.87 0.5 0.87 0.5 -0.87 0.5 0.87 0.5 -0.87 0.5 0.87 0.5 -0.87 0.5 0.87 0.5 -0.87 0.5 0.87 0.5 -0.87 0.5 0.87 0.5 -0.87 0.5 0.87 0.5 -0.87 0.5 0.87 0.5 -0.87 0.5 0.87 0.5 -0.87 0.5 0.87 0.5 -0.87 0.5 0.87 0.5 -0.87 0.5 0.87 0.5 -0.87 0.5 0.87 0.5 -0.87 0.5 0.87 0.5 -0.87 0.5 0.87 0.5 -0.87 0.5 0.87 0.5 -0.87 0.5 0.87 0.5 -0.87 0.5 0.87 0.5 -0.87 0.5 0.87 0.5 -0.87 0.5 0.87 0.5 -0.87 0.5 0.87 0.5 -0.87 0.5 0.87 0.5 -0.87 0.5 0.87 0.5 -0.87 0.5 0.87 0.5 -0.87 0.5 0.87 0.5 -0.87 0.5 0.87 0.5 -0.87 0.5 0.87 0.5 -0.87 0.5 0.87 0.5 -0.87 0.5 0.87 0.5 -0.87 0.5 0.87 0.5 -0.87 0.5 0.87 0.5 -0.87 0.5 0.87 0.5 -0.87 0.5 0.87 0.5 -0.87 0.5 0.87 0.5 -0.87 0.5 0.87 0.5 -0.87 0.5 0.87 0.5 -0.87 0.5 0.87 0.5 -0.87 0.5 0.87 0.5 -0.87 0.5 0.87 0.5 -0.87 0.5 0.87 0.5 -0.87 0.5 0.87 0.5 -0.87 0.5 0.87 0.5 -0.87 0.5 0.87 0.5 -0.87 0.5 0.87 0.5 -0.87 0.5 0.87 0.5 -0.87 0.5 0.87 0.5 -0.87 0.5 0.87 0.5 -0.87 0.5 0.87 0.5 -0.87 0.5 0.87 0.5 -0.87 0.5 0.87 0.5 -0.87 0.5 0.87 0.5 -0.87 0.5 0.87 0.5 -0.87 0.5 0.87 0.5 -0.87 0.5 0.87 0.5 -0.87 0.5 0.87 0.5 -0.87 0.5 0.87 0.5 -0.87 0.5 0.87 0.5 -0.87 0.5 0.87 0.5 -0.87 0.5 0.87 0.5 -0.87 0.5 0.87 0.5 -0.87 0.5 0.87 0.5 -0.87 0.5 0.87 0.5 -0.87 0.5 0.87 0.5 -0.87 0.5 0.87 0.5 -0.87 0.5 0.87 0.5 -0.87 0.5 0.87 0.5 -0.87 0.5 0.87 0.5 -0.87 0.5 0.87 0.5 -0.87 0.5 0.87 0.5 -0.87 0.5 0.87 0.5 -0.87 0.5 0.87 0.5 -0.87 0.5 0.87 0.5 -0.87 0.5 0.87 0.5 -0.87 0.5 0.87 0.5 -0.87 0.5 0.87 0.5 -0.87 0.5 0.87 0.5 -0.87 0.5 0.87 0.5 -0.87 0.5 0.87 0.5 -0.87 0.5 0.87 0.5 -0.87 0.5 0.87 0.5 -0.87 0.5 0.87 0.5 -0.87 0.5 0.87 0.5 -0.87 0.5 0.87 0.5 -0.87 0.5 0.87 0.5 -0.87 0.5 0.87 0.5 -0.87 0.5 0.87 0.5 -0.87 0.5 0.87 0.5 -0.87 0.5 0.87 0.5 -0.87 0.5 0.87 0.5 -0.87 0.5 0.87 0.5 -0.87 0.5 0.87 0.5 -0.87 0.5 0.87 0.5 -85.28 49.23z"/>
   <path class="fil2" d="M3241.88 5670.31l-118.51 -18.34 -43.69 94.15 118.57 18.34c1.99,21.63 11.72,43.06 29.12,62.82l-86.77 50.09 119.38 68.92 86.77 -50.09c34.22,10.05 71.34,15.66 108.8,16.81l31.77 68.45 163.07 -25.23 -31.76 -68.42c15.56,-5.86 30.33,-12.71 43.98,-20.6 13.66,-7.89 25.53,-16.41 35.68,-25.39l118.51 18.33 43.69 -94.15 -118.57 -18.34c-1.99,-21.63 -11.72,-43.06 -29.12,-62.82l86.77 -50.09 -119.38 -68.92 -86.77 50.1c-34.22,-10.05 -71.34,-15.66 -108.8,-16.81l-31.77 -68.45 -163.07 25.23 31.75 68.42c-15.56,5.86 -30.32,12.71 -43.98,20.6 -13.66,7.89 -25.53,16.41 -35.69,25.39zm131.46 29.9l0 0c53.43,-30.85 140.05,-30.85 193.48,0 53.43,30.85 53.43,80.86 0,111.71 -53.43,30.85 -140.05,30.85 -193.48,0 -53.43,-30.85 -53.43,-80.86 -0,-111.71z"/>
   <path class="fil1" d="M3358.04 5801.37c-37.47,-30.81 -32.39,-73.62 15.31,-101.16 53.43,-30.85 140.05,-30.85 193.48,0 42.6,24.6 51.2,61.37 25.86,90.9 -6.44,-7.51 -15.03,-14.55 -25.86,-20.8 -53.43,-30.85 -140.05,-30.85 -193.48,-0 -10.83,6.25 -19.42,13.3 -25.86,20.81 3.03,3.53 6.56,6.96 10.55,10.25z"/>
   <path class="fil1" d="M3662.61 5867.22c13.66,-7.89 25.53,-16.41 35.68,-25.39l118.51 18.33 43.39 -93.5 0.3 0.05 -0.3 0.65 0.3 0.05 -0.3 0.65 0.3 0.05 -0.3 0.65 0.3 0.05 -0.3 0.65 0.3 0.05 -0.3 0.65 0.3 0.05 -0.3 0.65 0.3 0.05 -0.3 0.65 0.3 0.05 -0.3 0.65 0.3 0.05 -0.3 0.65 0.3 0.05 -0.3 0.65 0.3 0.05 -0.3 0.65 0.3 0.05 -0.3 0.65 0.3 0.05 -0.3 0.65 0.3 0.05 -0.3 0.65 0.3 0.05 -0.3 0.65 0.3 0.05 -0.3 0.65 0.3 0.05 -0.3 0.65 0.3 0.05 -0.3 0.65 0.3 0.05 -0.3 0.65 0.3 0.05 -0.3 0.65 0.3 0.05 -0.3 0.65 0.3 0.05 -0.3 0.65 0.3 0.05 -0.3 0.65 0.3 0.05 -0.3 0.65 0.3 0.05 -0.3 0.65 0.3 0.05 -0.3 0.65 0.3 0.05 -0.3 0.65 0.3 0.05 -0.3 0.65 0.3 0.05 -0.3 0.65 0.3 0.05 -0.3 0.65 0.3 0.05 -0.3 0.65 0.3 0.05 -0.3 0.65 0.3 0.05 -0.3 0.65 0.3 0.05 -0.3 0.65 0.3 0.05 -0.3 0.65 0.3 0.05 -0.3 0.65 0.3 0.05 -0.3 0.65 0.3 0.05 -0.3 0.65 0.3 0.05 -0.3 0.65 0.3 0.05 -0.3 0.65 0.3 0.05 -0.3 0.65 0.3 0.05 -0.3 0.65 0.3 0.05 -0.3 0.65 0.3 0.05 -0.3 0.65 0.3 0.05 -0.3 0.65 0.3 0.05 -0.3 0.65 0.3 0.05 -0.3 0.65 0.3 0.05 -0.3 0.65 0.3 0.05 -0.3 0.65 0.3 0.05 -0.3 0.65 0.3 0.05 -0.3 0.65 0.3 0.05 -0.3 0.65 0.3 0.05 -0.3 0.65 0.3 0.05 -0.3 0.65 0.3 0.05 -0.3 0.65 0.3 0.05 -0.3 0.65 0.3 0.05 -0.3 0.65 0.3 0.05 -0.3 0.65 0.3 0.05 -0.3 0.65 0.3 0.05 -0.3 0.65 0.3 0.05 -0.3 0.65 0.3 0.05 -0.3 0.65 0.3 0.05 -0.3 0.65 0.3 0.05 -0.3 0.65 0.3 0.05 -0.3 0.65 0.3 0.05 -0.3 0.65 0.3 0.05 -0.3 0.65 0.3 0.05 -0.3 0.65 0.3 0.05 -0.3 0.65 0.3 0.05 -0.3 0.65 0.3 0.05 -0.3 0.65 0.3 0.05 -0.3 0.65 0.3 0.05 -0.3 0.65 0.3 0.05 -0.3 0.65 0.3 0.05 -0.3 0.65 0.3 0.05 -0.3 0.65 0.3 0.05 -0.3 0.65 0.3 0.05 -0.3 0.65 0.3 0.05 -0.3 0.65 0.3 0.05 -0.3 0.65 0.3 0.05 -0.3 0.65 0.3 0.05 -0.3 0.65 0.3 0.05 -0.3 0.65 0.3 0.05 -0.3 0.65 0.3 0.05 -0.3 0.65 0.3 0.05 -0.3 0.65 0.3 0.05 -0.3 0.65 0.3 0.05 -0.3 0.65 0.3 0.05 -0.3 0.65 0.3 0.05 -0.3 0.65 0.3 0.05 -0.3 0.65 0.3 0.05 -0.3 0.65 0.3 0.05 -0.3 0.65 0.3 0.05 -0.3 0.65 0.3 0.05 -0.3 0.65 0.3 0.05 -0.3 0.65 0.3 0.05 -0.3 0.65 0.3 0.05 -0.3 0.65 0.3 0.05 -0.3 0.65 0.3 0.05 -0.3 0.65 0.3 0.05 -43.69 94.15 -118.51 -18.33c-10.15,8.99 -22.02,17.51 -35.68,25.39 -5.44,3.14 -11.11,6.08 -16.88,8.89l4.66 10.03 -31.76 -68.42c15.56,-5.86 30.33,-12.71 43.98,-20.6z"/>
   <path class="fil1" d="M3259.97 5946.3l86.77 -50.09c34.22,10.05 71.34,15.66 108.8,16.81l31.77 68.45 163.07 -25.23 -0.3 0.05 0.3 0.65 -0.3 0.05 0.3 0.65 -0.3 0.05 0.3 0.65 -0.3 0.05 0.3 0.65 -0.3 0.05 0.3 0.65 -0.3 0.05 0.3 0.65 -0.3 0.05 0.3 0.65 -0.3 0.05 0.3 0.65 -0.3 0.05 0.3 0.65 -0.3 0.05 0.3 0.65 -0.3 0.05 0.3 0.65 -0.3 0.05 0.3 0.65 -0.3 0.05 0.3 0.65 -0.3 0.05 0.3 0.65 -0.3 0.05 0.3 0.65 -0.3 0.05 0.3 0.65 -0.3 0.05 0.3 0.65 -0.3 0.05 0.3 0.65 -0.3 0.05 0.3 0.65 -0.3 0.05 0.3 0.65 -0.3 0.05 0.3 0.65 -0.3 0.05 0.3 0.65 -0.3 0.05 0.3 0.65 -0.3 0.05 0.3 0.65 -0.3 0.05 0.3 0.65 -0.3 0.05 0.3 0.65 -0.3 0.05 0.3 0.65 -0.3 0.05 0.3 0.65 -0.3 0.05 0.3 0.65 -0.3 0.05 0.3 0.65 -0.3 0.05 0.3 0.65 -0.3 0.05 0.3 0.65 -0.3 0.05 0.3 0.65 -0.3 0.05 0.3 0.65 -0.3 0.05 0.3 0.65 -0.3 0.05 0.3 0.65 -0.3 0.05 0.3 0.65 -0.3 0.05 0.3 0.65 -0.3 0.05 0.3 0.65 -0.3 0.05 0.3 0.65 -0.3 0.05 0.3 0.65 -0.3 0.05 0.3 0.65 -0.3 0.05 0.3 0.65 -0.3 0.05 0.3 0.65 -0.3 0.05 0.3 0.65 -0.3 0.05 0.3 0.65 -0.3 0.05 0.3 0.65 -0.3 0.05 0.3 0.65 -0.3 0.05 0.3 0.65 -0.3 0.05 0.3 0.65 -0.3 0.05 0.3 0.65 -0.3 0.05 0.3 0.65 -0.3 0.05 0.3 0.65 -0.3 0.05 0.3 0.65 -0.3 0.05 0.3 0.65 -0.3 0.05 0.3 0.65 -0.3 0.05 0.3 0.65 -0.3 0.05 0.3 0.65 -0.3 0.05 0.3 0.65 -0.3 0.05 0.3 0.65 -0.3 0.05 0.3 0.65 -0.3 0.05 0.3 0.65 -0.3 0.05 0.3 0.65 -0.3 0.05 0.3 0.65 -0.3 0.05 0.3 0.65 -0.3 0.05 0.3 0.65 -0.3 0.05 0.3 0.65 -0.3 0.05 0.3 0.65 -0.3 0.05 0.3 0.65 -0.3 0.05 0.3 0.65 -0.3 0.05 0.3 0.65 -0.3 0.05 0.3 0.65 -0.3 0.05 0.3 0.65 -0.3 0.05 0.3 0.65 -0.3 0.05 0.3 0.65 -0.3 0.05 0.3 0.65 -0.3 0.05 0.3 0.65 -0.3 0.05 0.3 0.65 -0.3 0.05 0.3 0.65 -0.3 0.05 0.3 0.65 -0.3 0.05 0.3 0.65 -0.3 0.05 0.3 0.65 -0.3 0.05 0.3 0.65 -0.3 0.05 0.3 0.65 -0.3 0.05 0.3 0.65 -0.3 0.05 0.3 0.65 -0.3 0.05 0.3 0.65 -0.3 0.05 0.3 0.65 -0.3 0.05 0.3 0.65 -0.3 0.05 0.3 0.65 -0.3 0.05 0.3 0.65 -0.3 0.05 0.3 0.65 -0.3 0.05 0.3 0.65 -0.3 0.05 0.3 0.65 -0.3 0.05 0.3 0.65 -0.3 0.05 0.3 0.65 -0.3 0.05 0.3 0.65 -0.3 0.05 0.3 0.65 -0.3 0.05 0.3 0.65 -0.3 0.05 0.3 0.65 -0.3 0.05 0.3 0.65 -163.07 25.23 -31.77 -68.45c-37.47,-1.15 -74.58,-6.77 -108.8,-16.81l-86.77 50.09 -119.38 -68.92 0.6 -0.35 -0.6 -0.35 0.6 -0.35 -0.6 -0.35 0.6 -0.35 -0.6 -0.35 0.6 -0.35 -0.6 -0.35 0.6 -0.35 -0.6 -0.35 0.6 -0.35 -0.6 -0.35 0.6 -0.35 -0.6 -0.35 0.6 -0.35 -0.6 -0.35 0.6 -0.35 -0.6 -0.35 0.6 -0.35 -0.6 -0.35 0.6 -0.35 -0.6 -0.35 0.6 -0.35 -0.6 -0.35 0.6 -0.35 -0.6 -0.35 0.6 -0.35 -0.6 -0.35 0.6 -0.35 -0.6 -0.35 0.6 -0.35 -0.6 -0.35 0.6 -0.35 -0.6 -0.35 0.6 -0.35 -0.6 -0.35 0.6 -0.35 -0.6 -0.35 0.6 -0.35 -0.6 -0.35 0.6 -0.35 -0.6 -0.35 0.6 -0.35 -0.6 -0.35 0.6 -0.35 -0.6 -0.35 0.6 -0.35 -0.6 -0.35 0.6 -0.35 -0.6 -0.35 0.6 -0.35 -0.6 -0.35 0.6 -0.35 -0.6 -0.35 0.6 -0.35 -0.6 -0.35 0.6 -0.35 -0.6 -0.35 0.6 -0.35 -0.6 -0.35 0.6 -0.35 -0.6 -0.35 0.6 -0.35 -0.6 -0.35 0.6 -0.35 -0.6 -0.35 0.6 -0.35 -0.6 -0.35 0.6 -0.35 -0.6 -0.35 0.6 -0.35 -0.6 -0.35 0.6 -0.35 -0.6 -0.35 0.6 -0.35 -0.6 -0.35 0.6 -0.35 -0.6 -0.35 0.6 -0.35 -0.6 -0.35 0.6 -0.35 -0.6 -0.35 0.6 -0.35 -0.6 -0.35 0.6 -0.35 -0.6 -0.35 0.6 -0.35 -0.6 -0.35 0.6 -0.35 -0.6 -0.35 0.6 -0.35 -0.6 -0.35 0.6 -0.35 -0.6 -0.35 0.6 -0.35 -0.6 -0.35 0.6 -0.35 -0.6 -0.35 0.6 -0.35 -0.6 -0.35 0.6 -0.35 -0.6 -0.35 0.6 -0.35 -0.6 -0.35 0.6 -0.35 -0.6 -0.35 0.6 -0.35 -0.6 -0.35 0.6 -0.35 -0.6 -0.35 0.6 -0.35 -0.6 -0.35 0.6 -0.35 -0.6 -0.35 0.6 -0.35 -0.6 -0.35 0.6 -0.35 -0.6 -0.35 0.6 -0.35 -0.6 -0.35 0.6 -0.35 -0.6 -0.35 0.6 -0.35 -0.6 -0.35 0.6 -0.35 -0.6 -0.35 0.6 -0.35 -0.6 -0.35 0.6 -0.35 -0.6 -0.35 0.6 -0.35 -0.6 -0.35 0.6 -0.35 -0.6 -0.35 0.6 -0.35 -0.6 -0.35 0.6 -0.35 -0.6 -0.35 0.6 -0.35 -0.6 -0.35 0.6 -0.35 -0.6 -0.35 0.6 -0.35 -0.6 -0.35 0.6 -0.35 -0.6 -0.35 0.6 -0.35 -0.6 -0.35 0.6 -0.35 -0.6 -0.35 0.6 -0.35 -0.6 -0.35 0.6 -0.35 -0.6 -0.35 0.6 -0.35 -0.6 -0.35 0.6 -0.35 -0.6 -0.35 0.6 -0.35 -0.6 -0.35 0.6 -0.35 -0.6 -0.35 0.6 -0.35 -0.6 -0.35 0.6 -0.35 -0.6 -0.35 0.6 -0.35 -0.6 -0.35 0.6 -0.35 -0.6 -0.35 0.6 -0.35 -0.6 -0.35 0.6 -0.35 -0.6 -0.35 0.6 -0.35 -0.6 -0.35 0.6 -0.35 -0.6 -0.35 0.6 -0.35 -0.6 -0.35 0.6 -0.35 -0.6 -0.35 0.6 -0.35 -0.6 -0.35 0.6 -0.35 -0.6 -0.35 0.6 -0.35 -0.6 -0.35 0.6 -0.35 -0.6 -0.35 0.6 -0.35 -0.6 -0.35 0.6 -0.35 -0.6 -0.35 0.6 -0.35 -0.6 -0.35 0.6 -0.35 -0.6 -0.35 0.6 -0.35 -0.6 -0.35 0.6 -0.35 -0.6 -0.35 119.38 68.92z"/>
   <path class="fil1" d="M3079.97 5746.17l-0.3 -0.05 118.57 18.34c1.99,21.63 11.72,43.06 29.12,62.82l-27.85 16.08c-0.55,-2.93 -1,-5.86 -1.27,-8.8l-118.57 -18.34 0.3 -0.65 -0.3 -0.05 0.3 -0.65 -0.3 -0.05 0.3 -0.65 -0.3 -0.05 0.3 -0.65 -0.3 -0.05 0.3 -0.65 -0.3 -0.05 0.3 -0.65 -0.3 -0.05 0.3 -0.65 -0.3 -0.05 0.3 -0.65 -0.3 -0.05 0.3 -0.65 -0.3 -0.05 0.3 -0.65 -0.3 -0.05 0.3 -0.65 -0.3 -0.05 0.3 -0.65 -0.3 -0.05 0.3 -0.65 -0.3 -0.05 0.3 -0.65 -0.3 -0.05 0.3 -0.65 -0.3 -0.05 0.3 -0.65 -0.3 -0.05 0.3 -0.65 -0.3 -0.05 0.3 -0.65 -0.3 -0.05 0.3 -0.65 -0.3 -0.05 0.3 -0.65 -0.3 -0.05 0.3 -0.65 -0.3 -0.05 0.3 -0.65 -0.3 -0.05 0.3 -0.65 -0.3 -0.05 0.3 -0.65 -0.3 -0.05 0.3 -0.65 -0.3 -0.05 0.3 -0.65 -0.3 -0.05 0.3 -0.65 -0.3 -0.05 0.3 -0.65 -0.3 -0.05 0.3 -0.65 -0.3 -0.05 0.3 -0.65 -0.3 -0.05 0.3 -0.65 -0.3 -0.05 0.3 -0.65 -0.3 -0.05 0.3 -0.65 -0.3 -0.05 0.3 -0.65 -0.3 -0.05 0.3 -0.65 -0.3 -0.05 0.3 -0.65 -0.3 -0.05 0.3 -0.65 -0.3 -0.05 0.3 -0.65 -0.3 -0.05 0.3 -0.65 -0.3 -0.05 0.3 -0.65 -0.3 -0.05 0.3 -0.65 -0.3 -0.05 0.3 -0.65 -0.3 -0.05 0.3 -0.65 -0.3 -0.05 0.3 -0.65 -0.3 -0.05 0.3 -0.65 -0.3 -0.05 0.3 -0.65 -0.3 -0.05 0.3 -0.65 -0.3 -0.05 0.3 -0.65 -0.3 -0.05 0.3 -0.65 -0.3 -0.05 0.3 -0.65 -0.3 -0.05 0.3 -0.65 -0.3 -0.05 0.3 -0.65 -0.3 -0.05 0.3 -0.65 -0.3 -0.05 0.3 -0.65 -0.3 -0.05 0.3 -0.65 -0.3 -0.05 0.3 -0.65 -0.3 -0.05 0.3 -0.65 -0.3 -0.05 0.3 -0.65 -0.3 -0.05 0.3 -0.65 -0.3 -0.05 0.3 -0.65 -0.3 -0.05 0.3 -0.65 -0.3 -0.05 0.3 -0.65 -0.3 -0.05 0.3 -0.65 -0.3 -0.05 0.3 -0.65 -0.3 -0.05 0.3 -0.65 -0.3 -0.05 0.3 -0.65 -0.3 -0.05 0.3 -0.65 -0.3 -0.05 0.3 -0.65 -0.3 -0.05 0.3 -0.65 -0.3 -0.05 0.3 -0.65 -0.3 -0.05 0.3 -0.65 -0.3 -0.05 0.3 -0.65 -0.3 -0.05 0.3 -0.65 -0.3 -0.05 0.3 -0.65 -0.3 -0.05 0.3 -0.65 -0.3 -0.05 0.3 -0.65 -0.3 -0.05 0.3 -0.65 -0.3 -0.05 0.3 -0.65 -0.3 -0.05 0.3 -0.65 -0.3 -0.05 0.3 -0.65 -0.3 -0.05 0.3 -0.65 -0.3 -0.05 0.3 -0.65 -0.3 -0.05 0.3 -0.65 -0.3 -0.05 0.3 -0.65 -0.3 -0.05 0.3 -0.65 -0.3 -0.05 0.3 -0.65 -0.3 -0.05 0.3 -0.65 -0.3 -0.05 0.3 -0.65 -0.3 -0.05 0.3 -0.65 -0.3 -0.05 0.3 -0.65 -0.3 -0.05 0.3 -0.65 -0.3 -0.05 0.3 -0.65 -0.3 -0.05 0.3 -0.65 -0.3 -0.05 0.3 -0.65 -0.3 -0.05 0.3 -0.65 -0.3 -0.05 0.3 -0.65 -0.3 -0.05 0.3 -0.65 -0.3 -0.05 0.3 -0.65 -0.3 -0.05 0.3 -0.65 -0.3 -0.05 0.3 -0.65 -0.3 -0.05 0.3 -0.65z"/>
   <path class="fil1" d="M3294.45 5636.02l-4.66 -10.03 0.3 -0.05 -0.3 -0.65 0.3 -0.05 -0.3 -0.65 0.3 -0.05 -0.3 -0.65 0.3 -0.05 -0.3 -0.65 0.3 -0.05 -0.3 -0.65 0.3 -0.05 -0.3 -0.65 0.3 -0.05 -0.3 -0.65 0.3 -0.05 -0.3 -0.65 0.3 -0.05 -0.3 -0.65 0.3 -0.05 -0.3 -0.65 0.3 -0.05 -0.3 -0.65 0.3 -0.05 -0.3 -0.65 0.3 -0.05 -0.3 -0.65 0.3 -0.05 -0.3 -0.65 0.3 -0.05 -0.3 -0.65 0.3 -0.05 -0.3 -0.65 0.3 -0.05 -0.3 -0.65 0.3 -0.05 -0.3 -0.65 0.3 -0.05 -0.3 -0.65 0.3 -0.05 -0.3 -0.65 0.3 -0.05 -0.3 -0.65 0.3 -0.05 -0.3 -0.65 0.3 -0.05 -0.3 -0.65 0.3 -0.05 -0.3 -0.65 0.3 -0.05 -0.3 -0.65 0.3 -0.05 -0.3 -0.65 0.3 -0.05 -0.3 -0.65 0.3 -0.05 -0.3 -0.65 0.3 -0.05 -0.3 -0.65 0.3 -0.05 -0.3 -0.65 0.3 -0.05 -0.3 -0.65 0.3 -0.05 -0.3 -0.65 0.3 -0.05 -0.3 -0.65 0.3 -0.05 -0.3 -0.65 0.3 -0.05 -0.3 -0.65 0.3 -0.05 -0.3 -0.65 0.3 -0.05 -0.3 -0.65 0.3 -0.05 -0.3 -0.65 0.3 -0.05 -0.3 -0.65 0.3 -0.05 -0.3 -0.65 0.3 -0.05 -0.3 -0.65 0.3 -0.05 -0.3 -0.65 0.3 -0.05 -0.3 -0.65 0.3 -0.05 -0.3 -0.65 0.3 -0.05 -0.3 -0.65 0.3 -0.05 -0.3 -0.65 0.3 -0.05 -0.3 -0.65 0.3 -0.05 -0.3 -0.65 0.3 -0.05 -0.3 -0.65 0.3 -0.05 -0.3 -0.65 0.3 -0.05 -0.3 -0.65 0.3 -0.05 -0.3 -0.65 0.3 -0.05 -0.3 -0.65 0.3 -0.05 -0.3 -0.65 0.3 -0.05 -0.3 -0.65 0.3 -0.05 -0.3 -0.65 0.3 -0.05 -0.3 -0.65 0.3 -0.05 -0.3 -0.65 0.3 -0.05 -0.3 -0.65 0.3 -0.05 -0.3 -0.65 0.3 -0.05 -0.3 -0.65 0.3 -0.05 -0.3 -0.65 0.3 -0.05 -0.3 -0.65 0.3 -0.05 -0.3 -0.65 0.3 -0.05 -0.3 -0.65 0.3 -0.05 -0.3 -0.65 0.3 -0.05 -0.3 -0.65 0.3 -0.05 -0.3 -0.65 0.3 -0.05 -0.3 -0.65 0.3 -0.05 -0.3 -0.65 0.3 -0.05 -0.3 -0.65 0.3 -0.05 -0.3 -0.65 0.3 -0.05 -0.3 -0.65 0.3 -0.05 -0.3 -0.65 0.3 -0.05 -0.3 -0.65 0.3 -0.05 -0.3 -0.65 0.3 -0.05 -0.3 -0.65 0.3 -0.05 -0.3 -0.65 0.3 -0.05 -0.3 -0.65 0.3 -0.05 -0.3 -0.65 0.3 -0.05 -0.3 -0.65 0.3 -0.05 -0.3 -0.65 0.3 -0.05 -0.3 -0.65 0.3 -0.05 -0.3 -0.65 0.3 -0.05 -0.3 -0.65 0.3 -0.05 -0.3 -0.65 0.3 -0.05 -0.3 -0.65 0.3 -0.05 -0.3 -0.65 0.3 -0.05 -0.3 -0.65 0.3 -0.05 -0.3 -0.65 0.3 -0.05 -0.3 -0.65 0.3 -0.05 -0.3 -0.65 0.3 -0.05 -0.3 -0.65 0.3 -0.05 -0.3 -0.65 0.3 -0.05 -0.3 -0.65 0.3 -0.05 -0.3 -0.65 0.3 -0.05 -0.3 -0.65 0.3 -0.05 -0.3 -0.65 0.3 -0.05 -0.3 -0.65 0.3 -0.05 -0.3 -0.65 0.3 -0.05 31.45 67.78c-9.36,3.52 -18.39,7.46 -27.11,11.71 0,-0 0.01,-0 0.01,-0.01z"/>
   <path class="fil1" d="M3740.67 5738.87c-3.54,-18.62 -12.81,-36.94 -27.85,-54.02l86.77 -50.09 -0.6 0.35 0.6 0.35 -0.6 0.35 0.6 0.35 -0.6 0.35 0.6 0.35 -0.6 0.35 0.6 0.35 -0.6 0.35 0.6 0.35 -0.6 0.35 0.6 0.35 -0.6 0.35 0.6 0.35 -0.6 0.35 0.6 0.35 -0.6 0.35 0.6 0.35 -0.6 0.35 0.6 0.35 -0.6 0.35 0.6 0.35 -0.6 0.35 0.6 0.35 -0.6 0.35 0.6 0.35 -0.6 0.35 0.6 0.35 -0.6 0.35 0.6 0.35 -0.6 0.35 0.6 0.35 -0.6 0.35 0.6 0.35 -0.6 0.35 0.6 0.35 -0.6 0.35 0.6 0.35 -0.6 0.35 0.6 0.35 -0.6 0.35 0.6 0.35 -0.6 0.35 0.6 0.35 -0.6 0.35 0.6 0.35 -0.6 0.35 0.6 0.35 -0.6 0.35 0.6 0.35 -0.6 0.35 0.6 0.35 -0.6 0.35 0.6 0.35 -0.6 0.35 0.6 0.35 -0.6 0.35 0.6 0.35 -0.6 0.35 0.6 0.35 -0.6 0.35 0.6 0.35 -0.6 0.35 0.6 0.35 -0.6 0.35 0.6 0.35 -0.6 0.35 0.6 0.35 -0.6 0.35 0.6 0.35 -0.6 0.35 0.6 0.35 -0.6 0.35 0.6 0.35 -0.6 0.35 0.6 0.35 -0.6 0.35 0.6 0.35 -0.6 0.35 0.6 0.35 -0.6 0.35 0.6 0.35 -0.6 0.35 0.6 0.35 -0.6 0.35 0.6 0.35 -0.6 0.35 0.6 0.35 -0.6 0.35 0.6 0.35 -0.6 0.35 0.6 0.35 -0.6 0.35 0.6 0.35 -0.6 0.35 0.6 0.35 -0.6 0.35 0.6 0.35 -0.6 0.35 0.6 0.35 -0.6 0.35 0.6 0.35 -0.6 0.35 0.6 0.35 -0.6 0.35 0.6 0.35 -0.6 0.35 0.6 0.35 -0.6 0.35 0.6 0.35 -0.6 0.35 0.6 0.35 -0.6 0.35 0.6 0.35 -0.6 0.35 0.6 0.35 -0.6 0.35 0.6 0.35 -0.6 0.35 0.6 0.35 -0.6 0.35 0.6 0.35 -0.6 0.35 0.6 0.35 -0.6 0.35 0.6 0.35 -0.6 0.35 0.6 0.35 -0.6 0.35 0.6 0.35 -0.6 0.35 0.6 0.35 -0.6 0.35 0.6 0.35 -0.6 0.35 0.6 0.35 -0.6 0.35 0.6 0.35 -0.6 0.35 0.6 0.35 -0.6 0.35 0.6 0.35 -0.6 0.35 0.6 0.35 -0.6 0.35 0.6 0.35 -0.6 0.35 0.6 0.35 -0.6 0.35 0.6 0.35 -0.6 0.35 0.6 0.35 -0.6 0.35 0.6 0.35 -0.6 0.35 0.6 0.35 -0.6 0.35 0.6 0.35 -0.6 0.35 0.6 0.35 -0.6 0.35 0.6 0.35 -0.6 0.35 0.6 0.35 -0.6 0.35 0.6 0.35 -0.6 0.35 0.6 0.35 -0.6 0.35 0.6 0.35 -0.6 0.35 0.6 0.35 -0.6 0.35 0.6 0.35 -0.6 0.35 0.6 0.35 -0.6 0.35 0.6 0.35 -0.6 0.35 0.6 0.35 -0.6 0.35 0.6 0.35 -0.6 0.35 0.6 0.35 -0.6 0.35 0.6 0.35 -0.6 0.35 0.6 0.35 -0.6 0.35 0.6 0.35 -0.6 0.35 0.6 0.35 -0.6 0.35 0.6 0.35 -0.6 0.35 0.6 0.35 -0.6 0.35 0.6 0.35 -0.6 0.35 0.6 0.35 -0.6 0.35 0.6 0.35 -58.92 34.02z"/>
   <path class="fil3" d="M4147.43 3562.25c-196.91,-260.77 -193.13,-654.42 8.75,-911.36 137.07,-174.46 349.12,-284.96 461.31,-476.36 115.11,-196.36 104.18,-441.6 184.82,-654.45 118.85,-313.71 453.44,-531.6 788.42,-513.44 -199.25,131.65 -245.09,430.83 -191.44,663.54 53.66,232.71 163.18,457.73 154.46,696.39 -8.43,230.89 -129.38,446.17 -289.07,613.14 -159.7,166.97 -356.88,292.46 -551.96,416.24 -90.07,57.16 -182.1,115.17 -285.51,141.39 -103.4,26.22 -215.51,110.06 -279.79,24.93z"/>
   <path class="fil4" d="M4449.67 3642.08c139.79,-189.11 261.91,-389.58 365.6,-598.7 1.53,-2.08 2.68,-4.36 3.36,-6.78 32.91,-66.68 64.01,-134.21 93.12,-202.57 149.06,-68.29 287.3,-166.81 400.26,-285.49 8.06,-8.47 7.39,-21.94 -0.74,-29.91 -8.46,-8.06 -21.86,-7.73 -29.91,0.74 -98.59,103.59 -217.09,191.31 -345.21,256 54.62,-134.16 101.85,-271.27 141.6,-410.69 0.91,-0.6 1.81,-1.22 2.63,-1.98 108.7,-100.19 209.35,-210.53 299.15,-327.93 7.1,-9.28 5.36,-22.51 -3.95,-29.66 -9.28,-7.1 -22.56,-5.33 -29.66,3.95 -75.08,98.17 -157.94,191.24 -246.76,277.5 53.52,-203.34 91.21,-411.28 112.06,-622.01 1.15,-11.62 -7.34,-21.98 -18.97,-23.14 -11.63,-1.15 -21.98,7.34 -23.14,18.97 -12.84,129.79 -32.16,258.51 -57.63,385.74l-128.03 -321.36c-4.32,-10.86 -16.63,-16.15 -27.48,-11.82 -10.85,4.32 -16.15,16.63 -11.82,27.48l149.13 374.33c0.72,1.8 1.72,3.38 2.83,4.85 -30.49,138.52 -68.52,275.09 -113.61,409.21 -94.88,-122.36 -180.45,-253.01 -254.35,-388.96 -5.59,-10.27 -18.43,-14.06 -28.69,-8.48 -10.26,5.58 -14.06,18.42 -8.48,28.69 79.41,146.08 171.97,286.27 275.12,416.68 -27.11,77.34 -56.59,153.82 -88.46,229.32 -2.12,2.84 -3.54,6.12 -4.05,9.61 -25.06,58.93 -51.55,117.27 -79.46,174.95 -84.16,-110.33 -156.77,-229.58 -215.78,-355.17 -4.98,-10.54 -17.57,-15.12 -28.15,-10.15 -10.58,4.97 -15.12,17.57 -10.15,28.15 63.26,134.62 141.76,262.15 233.19,379.45 -101.7,203.9 -221.14,399.42 -357.59,584.01 -6.3,8.52 -5.25,20.21 2,27.49 0.74,0.75 1.55,1.45 2.43,2.1 9.4,6.95 22.64,4.96 29.59,-4.44z"/>
   <path class="fil4" d="M5553.76 2366.56c1.11,-30.34 0.29,-60.46 -2.07,-90.41 -296.01,23.97 -580.37,141.83 -808.77,341.5 -298.31,260.77 -477.34,591.37 -485.51,977.64 52.91,-11.45 112.67,-43.48 169.8,-57.96 103.4,-26.21 195.44,-84.23 285.51,-141.39 195.08,-123.78 392.26,-249.27 551.96,-416.24 159.7,-166.96 280.64,-382.25 289.07,-613.14z"/>
   <path class="fil5" d="M4276.93 3713.25c388.58,20.35 782.84,-89.09 1105.34,-306.83 322.49,-217.73 571.37,-542.51 697.75,-910.52 -411.68,-123.99 -857.78,-51.26 -1209.27,196.34 -351.49,247.6 -571.94,591.62 -593.81,1021.01z"/>
   <path class="fil4" d="M4094.91 3874.83c150.71,-192.45 317.7,-370.35 498.47,-532.18 1.65,-2.11 3.62,-3.89 5.86,-5.24 57.68,-51.45 116.71,-101.32 177.13,-149.43 27.11,-168.25 87.49,-334.05 175.08,-480.1 6.25,-10.42 19.93,-13.49 30.17,-7.55 10.42,6.25 13.8,19.76 7.55,30.17 -76.45,127.47 -131.49,270.5 -160.8,416.78 119.26,-91.89 243.53,-177.22 372.19,-255.67 0.36,-1.07 0.73,-2.15 1.26,-3.19 70.25,-136.66 152.89,-268.07 245.62,-390.57 7.33,-9.68 21.07,-11.6 30.8,-4.26 9.68,7.33 11.59,21.12 4.26,30.81 -77.54,102.43 -147.81,211.23 -209.61,324.11 188.87,-109.98 386.74,-205.36 592.07,-284.65 11.32,-4.37 24.06,1.26 28.43,12.59 4.37,11.33 -1.26,24.06 -12.59,28.44 -126.47,48.84 -250.07,103.86 -370.47,164.64l357.42 39.2c12.08,1.32 20.79,12.18 19.46,24.26 -1.32,12.07 -12.18,20.79 -24.26,19.46l-416.33 -45.66c-2,-0.22 -3.86,-0.78 -5.64,-1.49 -130.32,68.93 -256.6,144.88 -378.46,227.22 148.87,61.14 303.48,110.66 460.15,147.01 11.84,2.75 19.19,14.57 16.45,26.39 -2.75,11.83 -14.56,19.2 -26.39,16.45 -168.36,-39.06 -334.45,-92.94 -493.68,-160.13 -69.96,48.59 -138.42,99.32 -205.23,152.17 -2.25,2.91 -5.15,5.24 -8.51,6.72 -52.1,41.44 -103.2,84.14 -153.25,128.09 133.85,53.74 273.44,93.43 415.61,117.74 11.94,2.06 20.01,13.41 17.97,25.38 -2.05,11.97 -13.41,20.01 -25.38,17.97 -152.39,-26.06 -301.91,-69.36 -444.76,-128.45 -176.08,158.39 -338.85,332.23 -485.96,520.09 -6.79,8.67 -18.79,10.86 -28.09,5.61 -0.95,-0.54 -1.88,-1.15 -2.78,-1.85 -9.56,-7.49 -11.24,-21.31 -3.76,-30.87z"/>
   <path class="fil3" d="M1993.19 5207.68c203.08,-268.95 199.18,-674.94 -9.02,-939.95 -141.36,-179.92 -360.06,-293.9 -475.78,-491.3 -118.71,-202.52 -107.45,-455.45 -190.62,-674.97 -122.58,-323.55 -467.66,-548.28 -813.14,-529.54 205.5,135.78 252.78,444.34 197.44,684.35 -55.34,240.01 -168.3,472.08 -159.31,718.22 8.7,238.13 133.43,460.16 298.14,632.36 164.7,172.2 368.07,301.63 569.27,429.29 92.9,58.95 187.82,118.78 294.46,145.82 106.65,27.04 222.26,113.51 288.56,25.71z"/>
   <path class="fil4" d="M1681.47 5290.01c-144.18,-195.04 -270.12,-401.8 -377.06,-617.48 -1.58,-2.14 -2.76,-4.5 -3.46,-6.99 -33.94,-68.77 -66.02,-138.42 -96.04,-208.92 -153.73,-70.43 -296.31,-172.04 -412.81,-294.44 -8.31,-8.73 -7.62,-22.63 0.76,-30.85 8.73,-8.31 22.54,-7.97 30.85,0.76 101.68,106.83 223.9,197.31 356.04,264.03 -56.33,-138.36 -105.05,-279.77 -146.04,-423.57 -0.93,-0.62 -1.86,-1.26 -2.72,-2.05 -112.11,-103.33 -215.91,-217.13 -308.53,-338.22 -7.32,-9.57 -5.52,-23.22 4.07,-30.59 9.57,-7.32 23.27,-5.5 30.59,4.07 77.44,101.25 162.9,197.23 254.5,286.2 -55.2,-209.72 -94.07,-424.18 -115.58,-641.51 -1.18,-11.98 7.57,-22.67 19.57,-23.86 11.99,-1.19 22.67,7.57 23.86,19.57 13.25,133.86 33.16,266.62 59.44,397.84l132.05 -331.44c4.46,-11.2 17.15,-16.66 28.34,-12.19 11.19,4.46 16.65,17.15 12.19,28.34l-153.81 386.06c-0.74,1.85 -1.77,3.48 -2.91,5 31.45,142.86 70.67,283.72 117.17,422.04 97.85,-126.19 186.11,-260.95 262.32,-401.15 5.76,-10.59 19.01,-14.5 29.59,-8.75 10.58,5.75 14.5,19 8.75,29.59 -81.9,150.67 -177.36,295.25 -283.74,429.75 27.96,79.76 58.36,158.65 91.23,236.52 2.19,2.92 3.65,6.31 4.18,9.92 25.85,60.78 53.16,120.95 81.95,180.44 86.8,-113.79 161.69,-236.78 222.55,-366.31 5.13,-10.87 18.12,-15.59 29.03,-10.47 10.91,5.13 15.59,18.12 10.47,29.03 -65.24,138.84 -146.2,270.37 -240.51,391.35 104.89,210.29 228.08,411.95 368.8,602.32 6.5,8.79 5.42,20.84 -2.07,28.35 -0.77,0.77 -1.6,1.49 -2.51,2.16 -9.69,7.16 -23.35,5.12 -30.51,-4.58z"/>
   <path class="fil4" d="M542.76 3974.49c-1.14,-31.29 -0.3,-62.36 2.13,-93.24 305.29,24.72 598.56,146.28 834.13,352.21 307.66,268.95 492.31,609.91 500.73,1008.3 -54.56,-11.81 -116.21,-44.84 -175.12,-59.78 -106.65,-27.04 -201.56,-86.87 -294.46,-145.82 -201.2,-127.67 -404.57,-257.09 -569.27,-429.29 -164.7,-172.2 -289.44,-394.24 -298.14,-632.36z"/>
   <path class="fil5" d="M1859.63 5363.41c-400.77,20.98 -807.39,-91.89 -1140,-316.45 -332.61,-224.56 -589.29,-559.52 -719.63,-939.08 424.59,-127.88 884.68,-52.86 1247.19,202.5 362.52,255.36 589.88,610.17 612.43,1053.03z"/>
   <path class="fil4" d="M2047.36 5530.06c-155.44,-198.49 -327.66,-381.96 -514.1,-548.87 -1.71,-2.18 -3.74,-4.01 -6.04,-5.41 -59.49,-53.06 -120.37,-104.5 -182.68,-154.11 -27.95,-173.52 -90.23,-344.53 -180.57,-495.16 -6.44,-10.75 -20.55,-13.91 -31.11,-7.79 -10.74,6.44 -14.23,20.38 -7.79,31.11 78.85,131.47 135.62,278.98 165.84,429.85 -123,-94.78 -251.17,-182.77 -383.86,-263.69 -0.36,-1.11 -0.75,-2.22 -1.3,-3.29 -72.45,-140.95 -157.68,-276.48 -253.32,-402.82 -7.56,-9.99 -21.72,-11.97 -31.77,-4.39 -9.99,7.56 -11.95,21.79 -4.39,31.77 79.97,105.64 152.44,217.85 216.18,334.28 -194.8,-113.42 -398.87,-211.79 -610.64,-293.57 -11.67,-4.5 -24.81,1.3 -29.33,12.99 -4.51,11.69 1.3,24.81 12.99,29.33 130.43,50.37 257.91,107.11 382.09,169.8l-368.63 40.43c-12.45,1.36 -21.44,12.57 -20.07,25.02 1.36,12.45 12.57,21.44 25.02,20.07l429.39 -47.09c2.06,-0.23 3.98,-0.81 5.82,-1.53 134.41,71.09 264.64,149.42 390.33,234.35 -153.54,63.06 -312.99,114.13 -474.58,151.62 -12.21,2.84 -19.79,15.02 -16.96,27.22 2.83,12.2 15.01,19.8 27.22,16.96 173.64,-40.29 344.94,-95.85 509.16,-165.15 72.16,50.12 142.76,102.44 211.66,156.94 2.32,3.01 5.31,5.41 8.77,6.93 53.73,42.74 106.43,86.78 158.05,132.11 -138.05,55.42 -282.02,96.36 -428.64,121.44 -12.31,2.13 -20.64,13.83 -18.53,26.18 2.11,12.35 13.83,20.64 26.18,18.53 157.17,-26.88 311.37,-71.53 458.71,-132.48 181.6,163.36 349.48,342.65 501.2,536.4 7,8.94 19.38,11.2 28.98,5.79 0.98,-0.55 1.94,-1.19 2.86,-1.91 9.86,-7.73 11.6,-21.98 3.87,-31.84z"/>
   <path class="fil6" d="M4634.8 331.47l-3384.03 1953.77c-119.6,69.05 -217.44,237.8 -217.44,375.04l16.28 3691.68c0,137.24 97.85,193 217.44,123.95l3384.03 -1953.77c119.6,-69.05 217.42,-237.79 217.42,-375.03l-16.28 -3691.68c0,-137.24 -97.83,-193.01 -217.43,-123.96z"/>
   <path class="fil7" d="M4594.57 362.45l-3302.79 1906.86c-116.74,67.4 -212.22,232.09 -212.22,366.01l5.5 3652.38c0,133.93 95.48,188.38 212.22,120.98l3302.79 -1906.86c116.76,-67.41 212.22,-232.11 212.22,-366.03l-5.5 -3652.38c0,-133.93 -95.46,-188.37 -212.22,-120.96z"/>
   <path class="fil8" d="M4594.58 362.44l-3302.8 1906.87c-116.74,67.4 -212.22,232.09 -212.22,366.01l0 611.9 3727.23 -2151.92 0 -611.9c0,-133.93 -95.46,-188.37 -212.21,-120.97z"/>
   <path class="fil9" d="M1909.43 2427.65c35.65,-20.58 64.73,-70.71 64.73,-111.6 0,-40.89 -29.07,-57.47 -64.73,-36.88 -35.64,20.57 -64.71,70.72 -64.71,111.61 0,40.89 29.07,57.45 64.71,36.87z"/>
   <path class="fil9" d="M1650.59 2577.09c35.64,-20.57 64.71,-70.7 64.71,-111.59 0,-40.89 -29.07,-57.47 -64.71,-36.89 -35.64,20.58 -64.71,70.72 -64.71,111.61 0,40.89 29.07,57.45 64.71,36.87z"/>
   <path class="fil9" d="M1391.77 2726.52c35.62,-20.57 64.71,-70.7 64.71,-111.59 0,-40.89 -29.09,-57.46 -64.71,-36.89 -35.65,20.58 -64.73,70.73 -64.73,111.62 0,40.89 29.08,57.45 64.73,36.86z"/>
   <path class="fil10" d="M1745.43 4955.1l233.38 143.22 545.5 -584.28 217.57 -789.16c9.36,-33.95 -4.86,-70.01 -34.88,-88.44l-143.21 -87.89c-24.36,-14.95 -54.92,-15.49 -79.8,-1.4l-672.6 380.88c-40.76,23.08 -65.96,66.31 -65.96,113.15l0 913.91z"/>
   <path class="fil11" d="M1978.81 5098.32l778.87 -441.06 0 -923.98c0,-29.36 -31.66,-47.81 -57.2,-33.34l-655.71 371.31c-40.77,23.08 -65.96,66.31 -65.96,113.15l0 913.91z"/>
   <path class="fil12" d="M2274.58 4348.9c0,-68.62 43.78,-149.03 97.78,-179.61 54,-30.58 97.78,0.26 97.78,68.87 0,48.55 -22.13,102.69 -54.08,141.22l31.37 157.52 -150.14 85.02 31.38 -193.06c-31.95,-2.35 -54.08,-31.42 -54.08,-79.97z"/>
   <path class="fil13" d="M2042.39 3960.7c27.69,0 50.1,-22.41 50.1,-50.1l0 -338.5c0,-119.89 80.68,-264.29 176.19,-315.29 34.62,-18.52 65.62,-21.51 87.41,-8.45 26.41,15.86 41.58,54.93 41.58,107.23l0 338.49c0,27.69 22.41,50.1 50.1,50.1 27.69,0 50.1,-22.41 50.1,-50.1l0 -338.49c0,-88.37 -32.89,-158.78 -90.23,-193.16 -53.1,-31.93 -119.27,-29.76 -186.16,5.96 -128.54,68.65 -229.19,245.98 -229.19,403.7l0 338.5c0,27.68 22.41,50.1 50.1,50.1z"/>
   <path class="fil14" d="M3802.16 2890.24c47.58,-63.04 79.03,-137.84 79.03,-199.11 0,-97.17 -79.05,-123.96 -176.22,-59.72 -97.18,64.25 -176.23,195.56 -176.23,292.73 0,61.26 31.46,94.47 79.03,94.61 -107.65,110.89 -184.77,265.21 -184.77,386.48l46.99 -31.07c0,-129.56 105.4,-304.65 234.97,-390.31 129.56,-85.66 234.96,-49.94 234.96,79.62l46.99 -31.07c0,-121.27 -77.11,-173.63 -184.77,-142.18zm-97.19 46.63l0 0c-71.26,47.11 -129.23,27.47 -129.23,-43.79 0,-71.26 57.97,-167.56 129.23,-214.67 71.26,-47.11 129.23,-27.47 129.23,43.79 0,71.26 -57.98,167.56 -129.23,214.67z"/>
   <polygon class="fil10" points="4615.3,3045.37 2975.7,3991.99 2975.7,3761.61 4615.3,2814.99 "/>
   <polygon class="fil10" points="4615.3,3419.65 2975.7,4366.27 2975.7,4135.89 4615.3,3189.27 "/>
   <path class="fil14" d="M3592.36 3925.73c-0.97,27.17 -23.79,48.41 -50.95,47.44 -27.17,-0.97 -48.41,-23.78 -47.44,-50.95 0.97,-27.17 23.78,-48.41 50.95,-47.44 27.17,0.97 48.41,23.78 47.44,50.95z"/>
   <path class="fil14" d="M3776.85 3817.38c-0.97,27.17 -23.79,48.41 -50.95,47.44 -27.17,-0.97 -48.41,-23.78 -47.44,-50.95 0.97,-27.17 23.78,-48.41 50.95,-47.44 27.17,0.97 48.41,23.78 47.44,50.95z"/>
   <path class="fil14" d="M3961.33 3709.03c-0.97,27.17 26.11,48.41 -1.06,47.44 -27.17,-0.97 -48.41,-23.78 -47.44,-50.95 0.97,-27.17 23.78,-48.41 50.95,-47.44 27.17,0.97 -1.49,23.78 -2.46,50.95z"/>
   <path class="fil14" d="M4145.82 3600.68c-0.97,27.17 -23.78,48.41 -50.95,47.44 -27.17,-0.97 -48.41,-23.78 -47.44,-50.95 0.97,-27.17 23.78,-48.41 50.95,-47.44 27.17,0.97 48.41,23.78 47.44,50.95z"/>
   <path class="fil14" d="M4330.31 3492.33c-0.97,27.17 -23.78,48.41 -50.95,47.44 -27.17,-0.97 -48.41,-23.78 -47.44,-50.95 0.97,-27.17 23.78,-48.41 50.95,-47.44 27.17,0.97 48.41,23.78 47.44,50.95z"/>
   <path class="fil15" d="M4433.03 4123.35l-1129.63 652.19c-23.21,13.4 -52.21,-3.35 -52.21,-30.15l0 -220.99c0,-12.44 6.63,-23.93 17.4,-30.15l1129.63 -652.19c23.21,-13.4 52.21,3.35 52.21,30.15l0 220.99c0,12.44 -6.63,23.93 -17.4,30.15z"/>
   <polygon class="fil12" points="3607.16,4520.21 3607.16,4386.26 3638.7,4368.05 3638.7,4472.78 3683.65,4446.82 3683.65,4476.05 "/>
   <path class="fil12" d="M3811.57 4335.04c0,22.54 -4.82,42.45 -14.45,59.75 -9.63,17.29 -23.74,31.29 -42.32,42.02 -18.31,10.57 -32.35,12.78 -42.12,6.64 -9.77,-6.15 -14.65,-20.49 -14.65,-43.03 0,-22.3 4.86,-42.13 14.57,-59.49 9.72,-17.37 23.83,-31.4 42.36,-42.1 18.57,-10.72 32.66,-13.01 42.24,-6.88 9.58,6.13 14.37,20.5 14.37,43.1zm-80.33 46.38l0 0c0,25.9 7.85,34.31 23.55,25.25 7.98,-4.61 13.91,-11.18 17.77,-19.69 3.86,-8.52 5.79,-19.44 5.79,-32.75 0,-13.38 -1.95,-22.13 -5.87,-26.25 -3.91,-4.12 -9.75,-3.94 -17.52,0.54 -15.81,9.13 -23.72,26.77 -23.72,52.91z"/>
   <path class="fil12" d="M3879.52 4284.54l50.38 -29.09 0 72.2c-13.68,13.28 -28.72,24.64 -45.11,34.11 -17.99,10.39 -31.9,12.43 -41.72,6.14 -9.82,-6.31 -14.73,-20.54 -14.73,-42.72 0,-21.62 5.38,-41.55 16.13,-59.8 10.75,-18.24 25.82,-32.95 45.2,-44.14 7.34,-4.24 14.28,-7.45 20.8,-9.63 6.52,-2.17 12.2,-3.44 17.05,-3.79l-9.98 34.16c-8.41,0.09 -17.65,3.04 -27.71,8.85 -9.21,5.32 -16.33,12.87 -21.36,22.64 -5.03,9.77 -7.54,21.04 -7.54,33.81 0,12.52 2.27,20.75 6.83,24.69 4.55,3.94 11.11,3.44 19.68,-1.51 4.68,-2.7 8.99,-5.72 12.93,-9.02l0 -20.98 -20.84 12.02 0 -27.94z"/>
   <polygon class="fil12" points="3953.69,4320.14 3953.69,4186.19 3985.39,4167.89 3985.39,4301.84 "/>
   <path class="fil12" d="M4121.77 4223.11l-41.36 23.88 -42.64 -69.76 -0.72 0.42c1.01,14.26 1.52,25.3 1.52,33.11l0 60.38 -27.94 16.13 0 -133.95 41.2 -23.79 42.48 68.57 0.48 -0.27c-0.75,-13.07 -1.12,-23.7 -1.12,-31.89l0 -60.56 28.11 -16.23 0 133.96z"/>
   <path class="fil16" d="M6024.48 529.39l-1422.32 821.18c-50.27,29.02 -91.39,99.96 -91.39,157.64l0 1174.2c0,57.68 41.12,81.13 91.39,52.1l1422.32 -821.18c50.26,-29.02 91.39,-99.96 91.39,-157.63l0 -1174.2c0,-57.68 -41.13,-81.13 -91.39,-52.11z"/>
   <path class="fil17" d="M5998.98 573.89l-1359.22 784.75c-48.04,27.73 -87.34,95.52 -87.34,150.64l0 1122.11c0,55.12 39.3,77.53 87.34,49.79l1359.22 -784.75c48.03,-27.73 87.33,-95.52 87.33,-150.64l0 -1122.11c0,-55.12 -39.3,-77.53 -87.33,-49.79z"/>
   <path class="fil12" d="M5340.77 1355.07c27.78,-36.81 46.15,-80.49 46.15,-116.27 0,-56.75 -46.16,-72.39 -102.91,-34.87 -56.75,37.52 -102.91,114.2 -102.91,170.95 0,35.78 18.37,55.17 46.15,55.25 -62.86,64.76 -107.9,154.87 -107.9,225.69l27.44 -18.14c0,-75.66 61.55,-177.9 137.21,-227.93 75.66,-50.02 137.21,-29.16 137.21,46.5l27.44 -18.14c0,-70.82 -45.03,-101.39 -107.9,-83.03zm-56.76 27.23l0 0c-41.61,27.51 -75.47,16.04 -75.47,-25.57 0,-41.61 33.85,-97.85 75.47,-125.36 41.61,-27.51 75.47,-16.04 75.47,25.57 0,41.61 -33.86,97.85 -75.47,125.36z"/>
   <polygon class="fil12" points="5940.72,1430.57 4705.84,2143.53 4705.84,1970.01 5940.72,1257.06 "/>
   <polygon class="fil12" points="5940.72,1702.48 4705.84,2415.44 4705.84,2241.93 5940.72,1528.97 "/>
   <path class="fil14" d="M5170.29 2083.64c-0.73,20.47 -17.91,36.46 -38.38,35.73 -20.46,-0.73 -36.46,-17.91 -35.73,-38.38 0.73,-20.46 17.91,-36.46 38.38,-35.73 20.46,0.73 36.46,17.91 35.73,38.38z"/>
   <path class="fil14" d="M5309.23 2002.04c-0.73,20.47 -17.91,36.46 -38.38,35.73 -20.46,-0.73 -36.46,-17.91 -35.73,-38.38 0.73,-20.46 17.91,-36.46 38.38,-35.73 20.46,0.73 36.46,17.91 35.73,38.38z"/>
   <path class="fil14" d="M5448.18 1920.43c-0.73,20.47 -17.91,36.46 -38.38,35.73 -20.46,-0.73 -36.46,-17.91 -35.73,-38.38 0.73,-20.46 17.91,-36.46 38.38,-35.73 20.46,0.73 36.46,17.91 35.73,38.38z"/>
   <path class="fil14" d="M5587.13 1838.83c-0.73,20.47 -17.91,36.46 -38.38,35.73 -20.46,-0.73 -36.46,-17.91 -35.73,-38.38 0.73,-20.46 17.91,-36.46 38.38,-35.73 20.46,0.73 36.46,17.91 35.73,38.38z"/>
   <path class="fil14" d="M5726.08 1757.22c-0.73,20.47 -17.91,36.46 -38.38,35.73 -20.46,-0.73 -36.46,-17.91 -35.73,-38.38 0.73,-20.46 17.91,-36.46 38.38,-35.73 20.46,0.73 36.46,17.91 35.73,38.38z"/>
   <path class="fil18" d="M1962.75 7092.08c10.07,119.94 -163.31,262.36 -387.25,318.12 -223.94,55.76 -413.64,3.74 -423.71,-116.19 -10.07,-119.93 163.31,-262.36 387.25,-318.12 223.94,-55.76 413.64,-3.74 423.71,116.19z"/>
   <path class="fil18" d="M5768.91 6506.22c12.66,150.81 -205.35,329.9 -486.94,400.02 -281.59,70.11 -520.12,4.7 -532.78,-146.11 -12.66,-150.81 205.35,-329.9 486.94,-400.02 281.59,-70.12 520.12,-4.7 532.78,146.1z"/>
   <path class="fil19" d="M1750.62 4717.69c125.63,51.56 131.04,351.39 158.95,389.6 43.82,59.99 221.44,287.91 243.02,324.59 21.58,36.68 -60.42,95.67 -86.31,69.41 -20.6,-20.89 -196.02,-197.06 -266.87,-268.21 -19,-19.07 -30.1,-44.56 -31.17,-71.46l-17.62 -443.94z"/>
   <path class="fil1" d="M1284.07 7105.53c0,0 16.95,-641.92 16.95,-710.27 0,-68.35 -71.9,-526.65 -6.07,-736.66l499.57 46.38c0,0 9.78,211.95 9.79,227.87 0.01,24.85 -75.65,685.62 -66.02,1006.71l-195.6 18.49c0,0 -3.6,-425.66 34.4,-591.51 1.89,-99.89 -5.83,-324.63 -5.83,-324.63 0,0 -65.96,300.96 -72.97,371.06 -7.01,70.1 -50.61,705.12 -50.61,705.12 0,0 -97.03,-12.57 -163.63,-12.57z"/>
   <path class="fil5" d="M1159.55 5185.26c0,0 -23,-82.01 39.06,-212.85 35.56,-74.97 136.57,-137.79 258.08,-196.87 231.72,-112.67 322.19,-84.04 352.88,25.38 14.29,50.96 27.28,244.37 12.31,351.29 -24.51,175.06 -34.65,464.92 -19.57,574.42 3,21.79 -62.63,76.5 -198.97,106.31 -98.83,21.61 -323.91,13.99 -345.99,-77.5l12.95 -532.08 -110.74 -38.09z"/>
   <path class="fil20" d="M1667.05 4808.9c0,37.27 -47.46,67.48 -106.01,67.48 -58.55,0 -106.01,-30.21 -106.01,-67.48 0,-37.27 47.46,-67.48 106.01,-67.48 58.55,0 106.01,30.21 106.01,67.48z"/>
   <path class="fil20" d="M1655.57 4837.87l-176.01 0c-4.52,0 -8.18,-3.66 -8.18,-8.18l0 -194.59 188.44 0 0 198.52c0,2.35 -1.9,4.25 -4.25,4.25z"/>
   <path class="fil21" d="M1491.96 4635.1c0,86.31 50.9,163.04 132.62,190.8 17.29,5.88 35.24,-6.98 35.24,-25.25l0 -165.55 -167.86 0z"/>
   <path class="fil20" d="M1729.62 4553.07c-8.29,124.93 -31.9,222.46 -95.97,222.46 -95.06,0 -162.27,-99.91 -162.27,-225.11 0,-125.2 5.47,-193.49 100.53,-193.49 95.06,0 165.85,73.46 157.72,196.13z"/>
   <path class="fil22" d="M1471.38 4724.47c0,0 -2.02,-62.41 13.99,-144.91 9.21,-47.44 16.24,-64.18 56.94,-73.28 12.03,-2.69 105.56,26.67 128.51,23.89 29.55,-3.58 52.56,-57.39 58.65,-16.33 0,0 16.72,-28.27 -4.02,-98.62 -17.18,-58.29 -274.99,-140.66 -307,82.58 -16.25,113.35 36.58,167.03 52.93,226.66z"/>
   <path class="fil20" d="M1517.35 4603.59c0,30.67 1.41,61.24 -22.52,61.24 -23.94,0 -54.1,-38.55 -54.1,-69.22 0,-30.67 9.34,-47.55 33.28,-47.55 23.93,0 43.34,24.86 43.34,55.54z"/>
   <path class="fil20" d="M1746.97 5709.69c-0.8,-0 -1.59,-0.02 -2.38,-0.04 -58.09,-1.61 -67.86,-73.48 -10.88,-84.85 23.64,-4.72 47.87,-7.3 67.51,-15.86l30.27 -46.39c6.57,-10.07 40.7,-43.18 50.58,-36.34 8.01,5.55 -16.44,43.51 -19.81,52.65 0,0 -25.69,43.26 6.42,27.76 27.76,-13.4 97.37,-129.05 93.54,-43.29 -4.28,96.1 -135.52,147.14 -215.26,146.37z"/>
   <path class="fil19" d="M1157.02 5130.21c0,0 23.83,390.93 31.74,428.82 7.91,37.9 133.93,235.43 554.53,166.23 0,0 14.44,-75.37 7.33,-125.35 -82.47,-4.99 -336.26,-4.47 -393.09,-92.08 -19.31,-29.77 -25.52,-209.86 -25.52,-209.86 12.03,-100.22 -75.36,-184 -174.98,-167.77z"/>
   <path class="fil22" d="M1544.3 6948.46c0,0 1.53,76.42 0,96.28 -1.53,19.87 182,134.2 264.53,147.95 45.39,7.57 73.64,-9.59 89.87,-28.35 14.32,-16.55 10.97,-42 -6.07,-55.73 -103.24,-83.19 -166.56,-168.79 -166.56,-168.79l-181.78 8.63z"/>
   <path class="fil22" d="M1296.71 7102.54c0,0 -18.63,95.78 -15.13,118.71 3.5,22.92 18.18,169.64 143.51,163.53 125.32,-6.11 42.79,-157.42 35.15,-177.29 -7.64,-19.87 -24.45,-104.95 -24.45,-104.95l-139.08 0z"/>
   <path class="fil20" d="M1658.57 4734.65c-1.53,-8.1 -3.01,-18.77 8.48,-29.96 7.36,-7.17 21.45,-11.13 26.05,-1.94 4.6,9.2 -6.7,29.43 -13,33.57 -6.31,4.14 -20.47,3.96 -21.53,-1.67z"/>
   <polygon class="fil23" points="1890.35,5570.81 2006.05,5558.76 2177.89,5365.68 2062.2,5377.73 "/>
   <polygon class="fil24" points="1890.35,5570.81 1862.27,5539.98 2034.12,5346.91 2062.2,5377.73 "/>
   <polygon class="fil24" points="2177.89,5365.68 2149.82,5334.86 2034.12,5346.91 2062.2,5377.73 "/>
   <path class="fil20" d="M2141.9 5406.12c-15.56,17.49 -34.17,20.79 -66.34,24.86 -33.65,4.26 -66.65,3.94 -72.11,18.47 -6.2,16.47 27.13,16.33 27.13,16.33 0,0 52.47,-0.18 49.91,4.6 -2.57,4.78 -49.19,10.89 -65.27,11.63 -29.11,1.34 -41.43,0.48 -42.75,14.3 -1.97,20.68 77.85,6.43 76.44,14.29 -1.41,7.85 -64.07,14.68 -69.22,18.22 -5.15,3.53 -0.55,10.65 23.09,14.59 22.89,3.81 76.81,2.11 101.35,-13.61 53.46,-34.25 84.1,-94.86 73.76,-123.68 -10.33,-28.82 -10.33,-28.82 -10.33,-28.82l-25.66 28.82z"/>
   <path class="fil22" d="M1531.95 4672.43c-14.01,-47.75 -39.08,-124.37 0,-162.73l-39.99 0 0 122.74c0,22.08 17.9,39.99 39.99,39.99z"/>
   <path class="fil20" d="M4417.56 4120.28c0,0 -5.19,-47.91 -9.23,-63.65 -4.04,-15.73 -12.85,-77.89 -29.32,-98.34 -16.44,-20.46 -16.54,29.95 -21.09,44.1 -4.52,14.15 -26.41,22.05 -42.94,1.39 -16.54,-20.65 -33.07,-75.44 -48.04,-102.02 -14.93,-26.57 -85.5,65.23 -76.66,114.53 8.81,49.31 28.88,86.7 65.76,119.04 35.57,31.21 78.71,39.1 92.39,54.73l69.12 -69.8z"/>
   <path class="fil22" d="M5358.44 6510.89c0,0 6.54,19.48 -77.49,24.07 -84.03,4.58 -173.34,4.58 -184.82,59.57 -11.44,54.96 65.99,119.44 157.64,132.03 78.93,10.83 215.23,2.66 292.2,-12.62 12.85,-2.56 23.91,-8.53 25.64,-21.54 3.65,-27.05 6.22,-75.34 -10.96,-127.13 -24.58,-74.12 -202.21,-54.38 -202.21,-54.38z"/>
   <path class="fil22" d="M5128.73 6573.28c0,0 6.54,19.45 -77.49,24.04 -84.03,4.58 -173.37,4.58 -184.82,59.57 -11.44,54.99 53.84,98.51 145.46,111.1 78.96,10.87 236.95,18.3 299.73,20.9 13.11,0.54 23.91,-8.53 25.67,-21.54 3.62,-27.01 8.27,-75.28 4.49,-126.49 -5.71,-77.9 -213.05,-67.59 -213.05,-67.59z"/>
   <path class="fil25" d="M5544.34 5211.81c0,0 9.1,675.45 15.19,757.61 6.09,82.13 24.36,580.11 24.36,580.11 0,0 -141.13,71.08 -250.67,22.37l-62.71 -1284.03 273.84 -76.06z"/>
   <path class="fil1" d="M5346.56 5254.4l0 676.47c6.09,197.76 17.24,716.56 17.24,716.56 -161.23,18.24 -263.68,-69.51 -263.68,-69.51 9.13,-88.22 0,-587.22 0,-587.22 -33.04,-258.9 -52.81,-674.9 -56.24,-751.39 -0.39,-8 -0.55,-12.28 -0.55,-12.28l303.23 27.37z"/>
   <path class="fil19" d="M5641.7 4257.96c0,0 103.45,322 81.11,492.38 0,0 -83.13,71 -178.47,115.62l97.36 -608z"/>
   <path class="fil20" d="M5079.22 3960.33c0.32,123.93 82.07,224.17 182.6,223.91 100.53,-0.27 181.77,-100.95 181.48,-224.87 -0.35,-123.92 -82.1,-224.16 -182.63,-223.91 -100.56,0.26 -181.8,100.95 -181.45,224.87z"/>
   <path class="fil5" d="M5391.9 4133.88c0,0 -131.36,-8.97 -234.45,63.08 0,0 -7.63,21.68 -28.23,35.41 -20.6,13.75 -173.12,71.73 -173.12,71.73 0,0 95.34,643 43.62,935.09 0,0 222.12,173.42 568.95,0 0,0 50.7,-796.64 73.04,-981.23 0,0 -57.81,-71.5 -249.8,-124.08z"/>
   <path class="fil19" d="M4956.1 4304.11l-259.06 59.56 -276.72 -282.11c0,0 -97.13,29.99 -116.78,113.12l330.08 375.59 405.9 -35.43c0,0 97.1,-202.33 -83.42,-230.74z"/>
   <path class="fil22" d="M5195.23 3725.38c0,0 -198.68,40.68 -143.57,146.61 32.17,61.83 222.36,82.55 222.36,82.55 0,0 -100.74,55.29 -26.36,80.97 0,0 11.83,98 146.71,89.45 0,0 202.92,-264.32 -44.96,-389.51 0,0 -69.51,-25.19 -154.18,-10.08z"/>
   <path class="fil26" d="M2434.81 525.11c10.1,73.94 -30.52,162.05 -90.65,196.75 -59.82,34.59 -116.41,2.53 -126.77,-71.19 -9.68,-73.62 30.57,-161.52 90.44,-196.01 60.08,-34.8 116.99,-2.96 126.99,70.45zm-97.15 149.15l0 0c39.08,-22.53 64.95,-78.81 58.81,-126.94 -6.82,-47.39 -43.16,-67.59 -82.25,-45.59 -38.34,22.64 -64.63,79.02 -58.12,126.62 6.5,48.02 43.16,68.12 81.56,45.91z"/>
   <path class="fil1" d="M634.11 2113.02c10.1,73.94 -30.52,162.05 -90.65,196.75 -59.82,34.59 -116.41,2.53 -126.77,-71.19 -9.68,-73.62 30.57,-161.52 90.44,-196.01 60.08,-34.8 116.99,-2.96 126.99,70.45zm-97.16 149.15l0 0c39.08,-22.53 64.95,-78.81 58.81,-126.94 -6.82,-47.39 -43.16,-67.59 -82.25,-45.59 -38.34,22.64 -64.63,79.02 -58.12,126.62 6.5,48.02 43.16,68.12 81.56,45.91z"/>
   <path class="fil27 str0" d="M5423.86 316.33c10.1,73.94 -30.52,162.05 -90.65,196.75 -59.82,34.59 -116.41,2.53 -126.77,-71.19 -9.68,-73.62 30.57,-161.52 90.44,-196.01 60.08,-34.8 116.99,-2.96 126.99,70.45z"/>
   <path class="fil28" d="M5375.64 339.96l-0.02 -0.16 0.07 0.52 0.06 0.5 0.06 0.52 0.06 0.52 0.05 0.51 0.05 0.52 0.05 0.52 0.05 0.52 0.04 0.52 0.04 0.52 0.04 0.51 0.04 0.53 0.03 0.52 0.03 0.51 0.03 0.52 0.03 0.54 0.02 0.53 0.02 0.51 0.02 0.54 0.02 0.53 0.01 0.53 0.01 0.53 0.01 0.52 0 0.54 0 0.53 -0 0.53 -0 0.54 -0.01 0.52 -0.01 0.53 -0.01 0.54 -0.01 0.53 -0.02 0.53 -0.02 0.53 -0.02 0.53 -0.02 0.55 -0.03 0.53 -0.03 0.53 -0.03 0.53 -0.03 0.53 -0.04 0.55 -0.04 0.53 -0.04 0.53 -0.04 0.53 -0.05 0.53 -0.05 0.55 -0.05 0.55 -0.05 0.52 -0.06 0.53 -0.06 0.55 -0.06 0.55 -0.06 0.53 -0.07 0.54 -0.07 0.55 -0.07 0.53 -0.07 0.54 -0.07 0.53 -0.08 0.55 -0.08 0.55 -0.08 0.53 -0.08 0.54 -0.09 0.53 -0.09 0.55 -0.09 0.55 -0.09 0.54 -0.09 0.53 -0.1 0.55 -0.1 0.55 -0.1 0.53 -0.1 0.53 -0.11 0.54 -0.11 0.53 -0.11 0.54 -0.11 0.54 -0.12 0.53 -0.12 0.54 -0.12 0.53 -0.12 0.53 -0.13 0.54 -0.13 0.54 -0.13 0.54 -0.13 0.54 -0.13 0.53 -0.14 0.53 -0.14 0.54 -0.14 0.54 -0.14 0.54 -0.14 0.52 -0.15 0.52 -0.15 0.55 -0.15 0.54 -0.15 0.52 -0.15 0.52 -0.16 0.53 -0.16 0.54 -0.16 0.52 -0.16 0.52 -0.17 0.54 -0.17 0.53 -0.17 0.52 -0.18 0.53 -0.18 0.53 -0.18 0.52 -0.18 0.53 -0.18 0.53 -0.18 0.52 -0.19 0.52 -0.19 0.52 -0.19 0.52 -0.19 0.51 -0.2 0.52 -0.2 0.53 -0.2 0.51 -0.2 0.52 -0.21 0.52 -0.2 0.5 -0.21 0.52 -0.21 0.51 -0.21 0.51 -0.21 0.51 -0.21 0.5 -0.22 0.52 -0.22 0.5 -0.22 0.51 -0.22 0.51 -0.22 0.5 -0.22 0.5 -0.23 0.5 -0.23 0.51 -0.23 0.49 -0.24 0.5 -0.23 0.5 -0.24 0.5 -0.24 0.5 -0.23 0.48 -0.25 0.5 -0.25 0.5 -0.25 0.49 -0.25 0.49 -0.25 0.49 -0.25 0.48 -0.25 0.49 -0.26 0.48 -0.26 0.48 -0.26 0.48 -0.26 0.48 -0.26 0.48 -0.27 0.48 -0.27 0.48 -0.27 0.48 -0.27 0.47 -0.27 0.47 -0.27 0.47 -0.27 0.47 -0.28 0.47 -0.28 0.46 -0.29 0.47 -0.29 0.47 -0.28 0.46 -0.29 0.46 -0.28 0.45 -0.29 0.45 -0.29 0.46 -0.3 0.46 -0.29 0.45 -0.29 0.44 -0.3 0.45 -0.3 0.45 -0.29 0.44 -0.3 0.44 -0.3 0.44 -0.31 0.45 -0.31 0.44 -0.3 0.42 -0.32 0.44 -0.31 0.43 -0.31 0.42 -0.32 0.43 -0.32 0.43 -0.32 0.42 -0.31 0.42 -0.32 0.41 -0.33 0.42 -0.32 0.42 -0.32 0.41 -0.32 0.41 -0.34 0.42 -0.32 0.4 -0.33 0.4 -0.35 0.42 -0.33 0.4 -0.33 0.39 -0.34 0.41 -0.34 0.4 -0.34 0.39 -0.34 0.39 -0.34 0.38 -0.35 0.39 -0.34 0.38 -0.34 0.38 -0.35 0.38 -0.34 0.37 -0.36 0.38 -0.34 0.36 -0.36 0.37 -0.36 0.37 -0.35 0.36 -0.36 0.37 -0.35 0.36 -0.36 0.36 -0.36 0.36 -0.36 0.36 -0.36 0.35 -0.37 0.35 -0.36 0.35 -0.36 0.34 -0.37 0.35 -0.38 0.35 -0.36 0.33 -0.37 0.33 -0.38 0.34 -0.37 0.33 -0.37 0.33 -0.37 0.32 -0.37 0.32 -0.37 0.32 -0.38 0.32 -0.38 0.32 -0.37 0.3 -0.38 0.31 -0.39 0.31 -0.38 0.3 -0.38 0.3 -0.39 0.3 -0.38 0.3 -0.38 0.29 -0.38 0.29 -0.39 0.29 -0.39 0.29 -0.39 0.28 -0.4 0.29 -0.39 0.28 -0.39 0.27 -0.39 0.27 -0.39 0.26 -0.4 0.27 -0.4 0.26 -0.4 0.26 -0.4 0.26 -0.4 0.25 -0.4 0.25 -0.4 0.25 -0.41 0.25 -0.39 0.24 -0.4 0.24 -0.41 0.24 -0.4 0.23 9.97 17.29 0.51 -0.3 0.5 -0.3 0.51 -0.31 0.51 -0.31 0.5 -0.31 0.5 -0.31 0.5 -0.32 0.5 -0.32 0.5 -0.32 0.5 -0.33 0.49 -0.33 0.49 -0.33 0.5 -0.34 0.49 -0.34 0.49 -0.34 0.49 -0.35 0.48 -0.34 0.49 -0.35 0.48 -0.35 0.48 -0.36 0.48 -0.36 0.48 -0.36 0.48 -0.36 0.46 -0.36 0.47 -0.37 0.47 -0.37 0.46 -0.37 0.47 -0.38 0.47 -0.39 0.45 -0.38 0.45 -0.38 0.46 -0.39 0.46 -0.39 0.46 -0.4 0.45 -0.4 0.45 -0.4 0.44 -0.39 0.45 -0.41 0.45 -0.41 0.43 -0.4 0.44 -0.41 0.45 -0.42 0.44 -0.42 0.43 -0.42 0.44 -0.42 0.43 -0.42 0.43 -0.42 0.43 -0.43 0.43 -0.43 0.42 -0.43 0.43 -0.44 0.42 -0.44 0.42 -0.44 0.43 -0.45 0.41 -0.44 0.42 -0.45 0.41 -0.45 0.41 -0.46 0.41 -0.46 0.4 -0.45 0.41 -0.46 0.4 -0.46 0.41 -0.47 0.39 -0.46 0.39 -0.46 0.4 -0.48 0.4 -0.48 0.38 -0.46 0.39 -0.48 0.39 -0.48 0.38 -0.47 0.39 -0.49 0.38 -0.49 0.38 -0.48 0.37 -0.48 0.38 -0.5 0.38 -0.5 0.37 -0.49 0.37 -0.49 0.36 -0.49 0.37 -0.5 0.36 -0.5 0.36 -0.49 0.37 -0.52 0.35 -0.51 0.35 -0.5 0.35 -0.51 0.35 -0.51 0.35 -0.52 0.35 -0.51 0.34 -0.51 0.35 -0.53 0.34 -0.52 0.33 -0.51 0.34 -0.52 0.34 -0.53 0.34 -0.53 0.33 -0.53 0.33 -0.53 0.32 -0.53 0.32 -0.53 0.33 -0.54 0.32 -0.54 0.32 -0.54 0.32 -0.54 0.31 -0.54 0.31 -0.55 0.31 -0.54 0.31 -0.54 0.31 -0.55 0.3 -0.55 0.3 -0.55 0.3 -0.56 0.3 -0.56 0.3 -0.56 0.29 -0.55 0.29 -0.56 0.29 -0.56 0.28 -0.56 0.28 -0.57 0.28 -0.56 0.28 -0.56 0.29 -0.58 0.27 -0.57 0.27 -0.56 0.27 -0.57 0.27 -0.57 0.27 -0.58 0.26 -0.57 0.26 -0.57 0.26 -0.58 0.26 -0.58 0.25 -0.58 0.25 -0.58 0.25 -0.58 0.25 -0.57 0.25 -0.59 0.24 -0.58 0.24 -0.59 0.24 -0.59 0.23 -0.58 0.24 -0.6 0.23 -0.58 0.23 -0.59 0.23 -0.6 0.22 -0.58 0.22 -0.6 0.22 -0.6 0.22 -0.59 0.22 -0.59 0.21 -0.59 0.21 -0.6 0.21 -0.6 0.21 -0.6 0.21 -0.61 0.2 -0.6 0.2 -0.6 0.2 -0.61 0.19 -0.6 0.19 -0.59 0.19 -0.61 0.19 -0.61 0.18 -0.59 0.18 -0.6 0.18 -0.62 0.18 -0.62 0.17 -0.61 0.17 -0.59 0.17 -0.62 0.17 -0.62 0.16 -0.61 0.16 -0.61 0.16 -0.61 0.16 -0.62 0.16 -0.62 0.15 -0.61 0.15 -0.61 0.15 -0.61 0.14 -0.61 0.14 -0.62 0.14 -0.63 0.13 -0.62 0.14 -0.62 0.13 -0.61 0.13 -0.62 0.13 -0.63 0.12 -0.62 0.12 -0.63 0.12 -0.63 0.11 -0.62 0.11 -0.61 0.11 -0.63 0.11 -0.63 0.1 -0.62 0.1 -0.62 0.1 -0.63 0.1 -0.63 0.09 -0.63 0.09 -0.62 0.09 -0.62 0.09 -0.63 0.08 -0.63 0.08 -0.63 0.08 -0.62 0.08 -0.63 0.07 -0.63 0.07 -0.62 0.07 -0.62 0.07 -0.63 0.06 -0.64 0.06 -0.62 0.06 -0.62 0.05 -0.63 0.05 -0.63 0.05 -0.63 0.04 -0.63 0.04 -0.62 0.04 -0.63 0.04 -0.63 0.03 -0.63 0.03 -0.63 0.03 -0.62 0.03 -0.63 0.02 -0.63 0.02 -0.63 0.02 -0.63 0.01 -0.62 0.01 -0.63 0.01 -0.64 0 -0.62 0 -0.63 -0 -0.63 -0 -0.61 -0.01 -0.64 -0.01 -0.63 -0.01 -0.63 -0.02 -0.63 -0.02 -0.61 -0.02 -0.64 -0.03 -0.62 -0.03 -0.61 -0.03 -0.62 -0.04 -0.63 -0.04 -0.62 -0.04 -0.61 -0.05 -0.63 -0.05 -0.62 -0.05 -0.62 -0.06 -0.62 -0.06 -0.62 -0.06 -0.62 -0.06 -0.62 -0.07 -0.62 -0.07 -0.62 -0.07 -0.63 -0.08 -0.61 -0.02 -0.16zm0 0l0.02 0.13 0 0.04 -0.02 -0.16zm-87.05 -35.58l-0.18 0.1 0.4 -0.23 0.41 -0.22 0.39 -0.21 0.4 -0.21 0.41 -0.22 0.4 -0.21 0.39 -0.2 0.4 -0.2 0.4 -0.2 0.4 -0.2 0.39 -0.19 0.39 -0.18 0.41 -0.19 0.39 -0.18 0.38 -0.17 0.4 -0.17 0.39 -0.17 0.38 -0.16 0.39 -0.16 0.39 -0.16 0.39 -0.16 0.38 -0.15 0.39 -0.15 0.39 -0.15 0.37 -0.14 0.38 -0.14 0.38 -0.13 0.39 -0.13 0.37 -0.13 0.38 -0.13 0.38 -0.12 0.36 -0.11 0.38 -0.11 0.39 -0.12 0.36 -0.11 0.36 -0.1 0.39 -0.1 0.37 -0.1 0.36 -0.09 0.37 -0.09 0.37 -0.09 0.36 -0.08 0.37 -0.08 0.35 -0.07 0.37 -0.08 0.36 -0.07 0.36 -0.07 0.36 -0.07 0.36 -0.06 0.36 -0.06 0.36 -0.06 0.36 -0.05 0.36 -0.05 0.36 -0.05 0.33 -0.04 0.35 -0.04 0.37 -0.04 0.35 -0.04 0.33 -0.03 0.35 -0.03 0.35 -0.03 0.34 -0.02 0.36 -0.02 0.34 -0.02 0.32 -0.02 0.34 -0.01 0.35 -0.01 0.34 -0.01 0.34 -0 0.33 -0 0.32 0 0.35 0.01 0.33 0 0.33 0.01 0.33 0.01 0.32 0.02 0.34 0.02 0.31 0.02 0.32 0.02 0.34 0.03 0.32 0.03 0.32 0.03 0.34 0.03 0.31 0.04 0.3 0.04 0.31 0.04 0.33 0.05 0.33 0.05 0.31 0.05 0.29 0.05 0.31 0.06 0.32 0.06 0.32 0.06 0.3 0.06 0.29 0.06 0.32 0.07 0.32 0.07 0.28 0.07 0.31 0.08 0.32 0.08 0.28 0.07 0.29 0.08 0.31 0.09 0.31 0.09 0.29 0.09 0.29 0.09 0.29 0.09 0.3 0.1 0.3 0.1 0.27 0.1 0.28 0.1 0.3 0.11 0.3 0.11 0.29 0.12 0.28 0.11 0.26 0.11 0.3 0.13 0.29 0.13 0.27 0.12 0.29 0.13 0.28 0.13 0.27 0.13 0.28 0.14 0.29 0.15 0.27 0.14 0.26 0.14 0.28 0.15 0.28 0.15 0.26 0.15 0.26 0.15 0.28 0.16 0.27 0.16 0.26 0.16 0.26 0.16 0.26 0.17 0.27 0.17 0.27 0.18 0.25 0.16 0.26 0.18 0.27 0.18 0.26 0.18 0.24 0.18 0.26 0.19 0.26 0.19 0.25 0.19 0.26 0.2 0.24 0.19 0.26 0.21 0.25 0.2 0.24 0.2 0.26 0.21 0.24 0.21 0.25 0.22 0.23 0.21 0.25 0.23 0.25 0.23 0.23 0.21 0.24 0.23 0.24 0.24 0.24 0.24 0.23 0.22 0.23 0.24 0.24 0.25 0.23 0.24 0.22 0.24 0.24 0.27 0.24 0.26 0.21 0.24 0.23 0.26 0.23 0.27 0.23 0.27 0.22 0.27 0.22 0.27 0.21 0.26 0.22 0.28 0.23 0.29 0.22 0.29 0.21 0.28 0.21 0.28 0.21 0.29 0.21 0.29 0.22 0.3 0.21 0.3 0.21 0.3 0.21 0.3 0.2 0.3 0.21 0.32 0.21 0.32 0.2 0.31 0.2 0.31 0.19 0.31 0.2 0.32 0.19 0.32 0.2 0.34 0.19 0.32 0.19 0.33 0.19 0.34 0.19 0.34 0.19 0.34 0.18 0.33 0.19 0.35 0.18 0.35 0.18 0.36 0.18 0.36 0.17 0.35 0.18 0.37 0.17 0.36 0.17 0.36 0.17 0.37 0.17 0.37 0.17 0.38 0.17 0.38 0.16 0.38 0.16 0.39 0.16 0.38 0.16 0.39 0.16 0.4 0.15 0.39 0.15 0.4 0.15 0.41 0.15 0.41 0.14 0.39 0.14 0.41 0.15 0.43 0.14 0.41 0.13 0.4 0.14 0.43 0.14 0.43 0.13 0.42 0.13 0.43 0.13 0.43 0.13 0.44 0.13 0.44 0.12 0.43 0.12 0.44 0.12 0.45 0.12 0.45 0.11 0.45 0.11 0.46 0.11 0.46 0.11 0.45 0.1 0.46 0.11 0.48 0.1 0.46 0.1 0.47 0.1 0.48 0.09 0.47 0.09 0.47 0.09 0.49 0.09 0.48 0.08 0.48 0.08 0.49 0.08 0.49 0.08 0.5 0.08 0.5 0.07 0.5 19.75 -2.85 -0.09 -0.61 -0.09 -0.61 -0.09 -0.59 -0.1 -0.6 -0.1 -0.6 -0.11 -0.6 -0.11 -0.6 -0.11 -0.58 -0.11 -0.59 -0.12 -0.59 -0.12 -0.58 -0.12 -0.59 -0.13 -0.58 -0.13 -0.57 -0.13 -0.58 -0.14 -0.58 -0.13 -0.56 -0.14 -0.56 -0.14 -0.57 -0.15 -0.57 -0.15 -0.55 -0.15 -0.56 -0.16 -0.56 -0.16 -0.55 -0.16 -0.54 -0.16 -0.55 -0.17 -0.54 -0.17 -0.55 -0.17 -0.53 -0.17 -0.53 -0.19 -0.56 -0.18 -0.53 -0.18 -0.51 -0.19 -0.53 -0.2 -0.54 -0.19 -0.52 -0.19 -0.51 -0.2 -0.52 -0.2 -0.52 -0.2 -0.51 -0.21 -0.51 -0.21 -0.51 -0.21 -0.5 -0.21 -0.5 -0.22 -0.5 -0.22 -0.49 -0.22 -0.5 -0.22 -0.49 -0.23 -0.49 -0.23 -0.49 -0.23 -0.48 -0.24 -0.49 -0.24 -0.48 -0.24 -0.47 -0.24 -0.47 -0.24 -0.46 -0.25 -0.48 -0.25 -0.47 -0.25 -0.46 -0.26 -0.45 -0.26 -0.46 -0.27 -0.46 -0.26 -0.44 -0.27 -0.45 -0.27 -0.45 -0.28 -0.45 -0.28 -0.44 -0.28 -0.44 -0.28 -0.43 -0.28 -0.42 -0.29 -0.44 -0.29 -0.43 -0.29 -0.42 -0.3 -0.42 -0.29 -0.41 -0.3 -0.41 -0.31 -0.41 -0.31 -0.42 -0.31 -0.4 -0.31 -0.4 -0.31 -0.39 -0.32 -0.39 -0.33 -0.4 -0.33 -0.39 -0.32 -0.38 -0.32 -0.37 -0.32 -0.37 -0.33 -0.38 -0.35 -0.39 -0.33 -0.36 -0.33 -0.35 -0.35 -0.37 -0.35 -0.36 -0.34 -0.35 -0.35 -0.36 -0.36 -0.36 -0.35 -0.34 -0.35 -0.34 -0.36 -0.34 -0.37 -0.35 -0.36 -0.33 -0.36 -0.33 -0.38 -0.34 -0.36 -0.32 -0.38 -0.32 -0.37 -0.31 -0.38 -0.32 -0.38 -0.31 -0.38 -0.3 -0.4 -0.31 -0.38 -0.29 -0.39 -0.3 -0.38 -0.29 -0.39 -0.28 -0.41 -0.29 -0.4 -0.28 -0.39 -0.27 -0.4 -0.27 -0.42 -0.28 -0.4 -0.26 -0.4 -0.26 -0.41 -0.26 -0.42 -0.26 -0.42 -0.26 -0.41 -0.24 -0.41 -0.24 -0.43 -0.24 -0.43 -0.24 -0.42 -0.23 -0.42 -0.22 -0.44 -0.23 -0.44 -0.22 -0.42 -0.21 -0.43 -0.21 -0.44 -0.21 -0.44 -0.21 -0.43 -0.2 -0.45 -0.21 -0.44 -0.19 -0.43 -0.19 -0.47 -0.2 -0.46 -0.18 -0.44 -0.18 -0.44 -0.17 -0.44 -0.17 -0.46 -0.17 -0.47 -0.17 -0.45 -0.15 -0.46 -0.15 -0.46 -0.15 -0.46 -0.15 -0.47 -0.14 -0.46 -0.14 -0.46 -0.13 -0.48 -0.13 -0.49 -0.13 -0.46 -0.12 -0.46 -0.12 -0.5 -0.12 -0.46 -0.11 -0.47 -0.1 -0.5 -0.11 -0.48 -0.1 -0.47 -0.09 -0.47 -0.09 -0.49 -0.09 -0.5 -0.08 -0.49 -0.08 -0.47 -0.07 -0.47 -0.07 -0.49 -0.07 -0.51 -0.06 -0.5 -0.06 -0.47 -0.05 -0.49 -0.05 -0.5 -0.04 -0.48 -0.04 -0.5 -0.04 -0.51 -0.03 -0.48 -0.03 -0.5 -0.02 -0.5 -0.02 -0.5 -0.01 -0.5 -0.01 -0.48 -0.01 -0.52 -0 -0.5 0 -0.5 0.01 -0.5 0.01 -0.49 0.01 -0.5 0.02 -0.52 0.02 -0.5 0.03 -0.49 0.03 -0.51 0.04 -0.51 0.04 -0.51 0.04 -0.52 0.05 -0.51 0.05 -0.49 0.06 -0.51 0.06 -0.53 0.07 -0.5 0.07 -0.51 0.07 -0.51 0.08 -0.51 0.08 -0.51 0.09 -0.51 0.09 -0.51 0.09 -0.51 0.1 -0.51 0.1 -0.51 0.1 -0.52 0.11 -0.51 0.11 -0.51 0.12 -0.51 0.12 -0.51 0.13 -0.53 0.14 -0.51 0.13 -0.5 0.14 -0.52 0.15 -0.52 0.15 -0.5 0.15 -0.51 0.15 -0.53 0.16 -0.51 0.17 -0.51 0.17 -0.52 0.17 -0.51 0.18 -0.51 0.18 -0.51 0.18 -0.52 0.19 -0.51 0.19 -0.51 0.19 -0.53 0.21 -0.51 0.2 -0.51 0.21 -0.51 0.21 -0.52 0.22 -0.51 0.22 -0.51 0.22 -0.52 0.23 -0.51 0.23 -0.5 0.23 -0.52 0.25 -0.52 0.25 -0.51 0.25 -0.51 0.25 -0.51 0.26 -0.52 0.27 -0.52 0.27 -0.5 0.26 -0.51 0.27 -0.52 0.28 -0.51 0.28 -0.51 0.28 -0.18 0.1zm0 0l0.11 -0.06 0.07 -0.04 -0.18 0.1zm-43.16 133.87l-0 -0.01 -0.07 -0.51 -0.06 -0.5 -0.06 -0.51 -0.06 -0.51 -0.06 -0.5 -0.05 -0.51 -0.05 -0.52 -0.05 -0.51 -0.04 -0.5 -0.04 -0.5 -0.04 -0.51 -0.04 -0.53 -0.04 -0.52 -0.03 -0.5 -0.03 -0.52 -0.03 -0.53 -0.03 -0.51 -0.02 -0.52 -0.02 -0.52 -0.02 -0.52 -0.02 -0.52 -0.01 -0.52 -0.01 -0.52 -0.01 -0.52 -0.01 -0.52 0 -0.51 0 -0.54 0 -0.54 0.01 -0.51 0.01 -0.53 0.01 -0.53 0.01 -0.53 0.02 -0.54 0.02 -0.51 0.02 -0.53 0.02 -0.54 0.03 -0.53 0.03 -0.53 0.03 -0.53 0.04 -0.54 0.03 -0.53 0.04 -0.52 0.04 -0.54 0.04 -0.54 0.05 -0.52 0.05 -0.53 0.05 -0.54 0.05 -0.53 0.06 -0.54 0.06 -0.53 0.06 -0.52 0.06 -0.54 0.07 -0.54 0.07 -0.53 0.07 -0.53 0.07 -0.54 0.07 -0.53 0.08 -0.53 0.08 -0.54 0.08 -0.53 0.08 -0.53 0.09 -0.53 0.09 -0.54 0.09 -0.54 0.09 -0.53 0.1 -0.54 0.1 -0.53 0.1 -0.53 0.1 -0.54 0.1 -0.53 0.11 -0.54 0.11 -0.54 0.11 -0.53 0.11 -0.53 0.12 -0.54 0.12 -0.53 0.12 -0.54 0.12 -0.54 0.13 -0.53 0.13 -0.54 0.13 -0.52 0.14 -0.54 0.14 -0.54 0.14 -0.52 0.14 -0.54 0.14 -0.52 0.15 -0.53 0.15 -0.54 0.15 -0.52 0.15 -0.53 0.15 -0.53 0.16 -0.53 0.16 -0.52 0.16 -0.53 0.16 -0.53 0.17 -0.53 0.17 -0.53 0.17 -0.52 0.17 -0.53 0.17 -0.52 0.17 -0.52 0.18 -0.52 0.18 -0.52 0.18 -0.52 0.18 -0.52 0.19 -0.52 0.19 -0.52 0.19 -0.51 0.19 -0.52 0.2 -0.52 0.19 -0.51 0.2 -0.52 0.2 -0.51 0.2 -0.51 0.21 -0.52 0.21 -0.51 0.21 -0.51 0.21 -0.5 0.22 -0.52 0.21 -0.51 0.22 -0.51 0.22 -0.5 0.22 -0.51 0.22 -0.51 0.22 -0.5 0.22 -0.5 0.23 -0.5 0.23 -0.51 0.23 -0.5 0.23 -0.49 0.23 -0.5 0.24 -0.5 0.24 -0.5 0.24 -0.49 0.25 -0.5 0.24 -0.49 0.24 -0.48 0.25 -0.5 0.25 -0.49 0.25 -0.48 0.26 -0.49 0.25 -0.48 0.26 -0.48 0.26 -0.48 0.26 -0.47 0.27 -0.49 0.26 -0.48 0.27 -0.48 0.27 -0.48 0.27 -0.47 0.27 -0.47 0.28 -0.48 0.27 -0.47 0.28 -0.46 0.28 -0.47 0.28 -0.46 0.28 -0.46 0.28 -0.46 0.28 -0.46 0.29 -0.46 0.29 -0.45 0.3 -0.46 0.29 -0.45 0.29 -0.44 0.3 -0.46 0.29 -0.45 0.3 -0.44 0.29 -0.44 0.31 -0.45 0.31 -0.45 0.3 -0.43 0.31 -0.44 0.31 -0.44 0.31 -0.43 0.31 -0.44 0.31 -0.42 0.31 -0.42 0.32 -0.43 0.32 -0.43 0.32 -0.42 0.32 -0.43 0.32 -0.42 0.32 -0.41 0.33 -0.42 0.32 -0.41 0.32 -0.4 0.33 -0.41 0.33 -0.41 0.33 -0.4 0.34 -0.41 0.33 -0.39 0.34 -0.4 0.34 -0.4 0.33 -0.38 0.34 -0.39 0.35 -0.4 0.34 -0.39 0.34 -0.38 0.34 -0.38 0.35 -0.38 0.34 -0.37 0.35 -0.38 0.34 -0.37 0.35 -0.37 0.35 -0.37 0.35 -0.36 0.36 -0.37 0.35 -0.36 0.34 -0.35 0.37 -0.37 0.36 -0.36 0.36 -0.35 0.36 -0.35 0.36 -0.34 0.38 -0.36 0.36 -0.34 0.35 -0.33 0.37 -0.34 0.37 -0.34 0.36 -0.33 0.36 -0.33 0.37 -0.33 0.37 -0.32 0.37 -0.33 0.37 -0.32 0.38 -0.32 0.38 -0.32 0.36 -0.3 0.37 -0.31 0.38 -0.31 0.38 -0.31 0.37 -0.3 0.38 -0.3 0.38 -0.3 0.38 -0.29 0.37 -0.28 0.39 -0.29 0.39 -0.29 0.39 -0.29 0.38 -0.28 0.38 -0.27 0.38 -0.27 0.39 -0.28 0.39 -0.27 0.39 -0.27 0.39 -0.27 0.38 -0.25 0.4 -0.26 0.4 -0.26 0.38 -0.25 0.39 -0.25 0.4 -0.25 0.39 -0.25 0.37 -0.23 0.4 -0.24 0.4 -0.24 -10.15 -17.19 -0.5 0.3 -0.49 0.3 -0.52 0.32 -0.5 0.31 -0.49 0.31 -0.5 0.32 -0.5 0.32 -0.48 0.32 -0.48 0.32 -0.5 0.33 -0.48 0.33 -0.49 0.33 -0.48 0.34 -0.48 0.34 -0.48 0.34 -0.49 0.35 -0.48 0.35 -0.47 0.35 -0.47 0.35 -0.47 0.35 -0.48 0.37 -0.47 0.36 -0.46 0.36 -0.47 0.37 -0.47 0.37 -0.46 0.37 -0.45 0.37 -0.46 0.38 -0.47 0.39 -0.45 0.38 -0.45 0.38 -0.45 0.39 -0.45 0.39 -0.45 0.4 -0.44 0.39 -0.45 0.4 -0.44 0.41 -0.44 0.4 -0.44 0.4 -0.45 0.42 -0.44 0.42 -0.42 0.4 -0.44 0.42 -0.43 0.42 -0.43 0.43 -0.42 0.42 -0.41 0.42 -0.43 0.44 -0.42 0.44 -0.41 0.43 -0.42 0.44 -0.41 0.44 -0.41 0.44 -0.42 0.45 -0.41 0.44 -0.41 0.45 -0.4 0.45 -0.4 0.45 -0.41 0.46 -0.4 0.46 -0.39 0.45 -0.4 0.46 -0.41 0.48 -0.39 0.46 -0.39 0.47 -0.39 0.48 -0.38 0.46 -0.38 0.47 -0.38 0.47 -0.38 0.48 -0.39 0.49 -0.38 0.48 -0.37 0.48 -0.38 0.49 -0.37 0.49 -0.37 0.48 -0.37 0.49 -0.36 0.49 -0.37 0.5 -0.37 0.5 -0.37 0.51 -0.35 0.5 -0.36 0.5 -0.36 0.51 -0.35 0.5 -0.36 0.52 -0.35 0.5 -0.34 0.5 -0.35 0.52 -0.35 0.52 -0.34 0.52 -0.33 0.51 -0.35 0.53 -0.34 0.52 -0.33 0.52 -0.33 0.53 -0.33 0.53 -0.33 0.53 -0.33 0.53 -0.32 0.53 -0.32 0.54 -0.32 0.53 -0.32 0.54 -0.32 0.54 -0.31 0.53 -0.31 0.54 -0.31 0.55 -0.31 0.54 -0.31 0.55 -0.3 0.55 -0.3 0.54 -0.3 0.56 -0.3 0.56 -0.29 0.55 -0.29 0.56 -0.29 0.55 -0.29 0.56 -0.29 0.56 -0.28 0.55 -0.29 0.57 -0.28 0.56 -0.27 0.56 -0.28 0.57 -0.27 0.56 -0.27 0.56 -0.27 0.57 -0.27 0.58 -0.26 0.57 -0.26 0.56 -0.26 0.58 -0.26 0.58 -0.26 0.58 -0.25 0.58 -0.25 0.58 -0.25 0.58 -0.25 0.58 -0.24 0.58 -0.24 0.57 -0.24 0.59 -0.24 0.59 -0.24 0.59 -0.23 0.58 -0.23 0.59 -0.23 0.59 -0.22 0.58 -0.23 0.6 -0.22 0.58 -0.22 0.59 -0.22 0.6 -0.21 0.59 -0.21 0.6 -0.21 0.59 -0.21 0.6 -0.2 0.6 -0.2 0.6 -0.2 0.6 -0.2 0.6 -0.2 0.6 -0.2 0.61 -0.19 0.6 -0.19 0.6 -0.19 0.61 -0.18 0.6 -0.18 0.61 -0.18 0.6 -0.18 0.61 -0.17 0.61 -0.18 0.62 -0.17 0.6 -0.17 0.61 -0.17 0.62 -0.16 0.6 -0.16 0.62 -0.16 0.61 -0.15 0.61 -0.15 0.62 -0.15 0.61 -0.15 0.62 -0.14 0.61 -0.14 0.61 -0.14 0.62 -0.14 0.61 -0.13 0.62 -0.13 0.62 -0.13 0.61 -0.12 0.61 -0.12 0.62 -0.12 0.62 -0.12 0.62 -0.11 0.63 -0.11 0.62 -0.11 0.62 -0.11 0.61 -0.1 0.62 -0.1 0.63 -0.1 0.63 -0.1 0.63 -0.09 0.61 -0.09 0.63 -0.09 0.63 -0.08 0.62 -0.08 0.63 -0.08 0.63 -0.07 0.61 -0.07 0.62 -0.07 0.64 -0.07 0.63 -0.07 0.62 -0.06 0.63 -0.06 0.61 -0.06 0.63 -0.05 0.64 -0.05 0.62 -0.05 0.62 -0.05 0.64 -0.04 0.63 -0.04 0.62 -0.04 0.63 -0.03 0.63 -0.03 0.63 -0.03 0.61 -0.03 0.63 -0.02 0.64 -0.02 0.61 -0.02 0.62 -0.01 0.63 -0.01 0.62 -0.01 0.64 -0 0.61 -0 0.61 0 0.64 0.01 0.62 0.01 0.62 0.01 0.62 0.01 0.62 0.02 0.62 0.02 0.62 0.02 0.62 0.03 0.62 0.03 0.63 0.03 0.61 0.04 0.62 0.04 0.63 0.04 0.62 0.05 0.6 0.05 0.62 0.05 0.63 0.06 0.63 0.06 0.61 0.06 0.6 0.07 0.61 0.07 0.62 0.07 0.61 0.07 0.61 0.08 0.62 0.08 0.61 -0 -0.01zm19.78 -2.69l-0.01 -0.1 0.02 0.11 -0 -0.01zm66.67 38.62l-0.4 0.23 -0.39 0.22 -0.39 0.21 -0.4 0.22 -0.39 0.21 -0.38 0.21 -0.4 0.21 -0.39 0.2 -0.38 0.19 -0.39 0.19 -0.39 0.19 -0.39 0.19 -0.39 0.19 -0.38 0.18 -0.38 0.17 -0.4 0.18 -0.37 0.17 -0.37 0.16 -0.4 0.17 -0.38 0.16 -0.37 0.15 -0.39 0.16 -0.37 0.14 -0.37 0.14 -0.39 0.15 -0.38 0.14 -0.36 0.13 -0.36 0.13 -0.38 0.13 -0.37 0.12 -0.37 0.12 -0.37 0.12 -0.36 0.11 -0.37 0.11 -0.37 0.11 -0.36 0.1 -0.37 0.1 -0.37 0.1 -0.37 0.1 -0.36 0.09 -0.36 0.09 -0.36 0.09 -0.34 0.08 -0.36 0.08 -0.36 0.08 -0.36 0.07 -0.36 0.07 -0.34 0.07 -0.36 0.06 -0.35 0.06 -0.35 0.06 -0.35 0.06 -0.35 0.05 -0.35 0.05 -0.35 0.05 -0.35 0.04 -0.34 0.04 -0.35 0.04 -0.33 0.03 -0.34 0.03 -0.36 0.03 -0.34 0.03 -0.32 0.02 -0.34 0.02 -0.34 0.02 -0.33 0.01 -0.35 0.01 -0.33 0.01 -0.31 0.01 -0.33 0 -0.35 0 -0.33 -0 -0.31 -0.01 -0.32 -0.01 -0.34 -0.01 -0.32 -0.01 -0.32 -0.02 -0.32 -0.02 -0.32 -0.02 -0.32 -0.02 -0.32 -0.03 -0.33 -0.03 -0.31 -0.03 -0.29 -0.03 -0.33 -0.04 -0.31 -0.04 -0.31 -0.05 -0.31 -0.04 -0.3 -0.05 -0.32 -0.05 -0.3 -0.05 -0.3 -0.06 -0.31 -0.06 -0.3 -0.06 -0.3 -0.06 -0.31 -0.07 -0.29 -0.07 -0.3 -0.07 -0.31 -0.08 -0.29 -0.07 -0.29 -0.08 -0.29 -0.08 -0.29 -0.09 -0.3 -0.09 -0.29 -0.09 -0.29 -0.09 -0.29 -0.1 -0.29 -0.1 -0.29 -0.1 -0.3 -0.11 -0.28 -0.1 -0.28 -0.11 -0.29 -0.11 -0.28 -0.11 -0.28 -0.11 -0.27 -0.12 -0.3 -0.13 -0.29 -0.13 -0.26 -0.12 -0.28 -0.13 -0.27 -0.13 -0.28 -0.14 -0.27 -0.13 -0.28 -0.14 -0.28 -0.14 -0.24 -0.13 -0.29 -0.16 -0.28 -0.15 -0.25 -0.14 -0.27 -0.16 -0.27 -0.16 -0.27 -0.16 -0.26 -0.16 -0.26 -0.16 -0.26 -0.16 -0.28 -0.18 -0.26 -0.17 -0.25 -0.17 -0.27 -0.18 -0.27 -0.19 -0.24 -0.17 -0.26 -0.19 -0.27 -0.2 -0.23 -0.18 -0.25 -0.19 -0.27 -0.21 -0.24 -0.19 -0.25 -0.2 -0.26 -0.21 -0.24 -0.21 -0.25 -0.22 -0.24 -0.21 -0.23 -0.21 -0.24 -0.22 -0.26 -0.24 -0.25 -0.23 -0.22 -0.21 -0.24 -0.23 -0.24 -0.24 -0.24 -0.23 -0.24 -0.24 -0.23 -0.24 -0.22 -0.23 -0.24 -0.25 -0.23 -0.25 -0.23 -0.25 -0.23 -0.25 -0.22 -0.25 -0.23 -0.27 -0.23 -0.27 -0.22 -0.26 -0.22 -0.27 -0.21 -0.26 -0.22 -0.27 -0.23 -0.29 -0.21 -0.27 -0.22 -0.29 -0.22 -0.29 -0.21 -0.28 -0.21 -0.29 -0.21 -0.29 -0.2 -0.29 -0.21 -0.31 -0.21 -0.31 -0.19 -0.29 -0.21 -0.32 -0.2 -0.31 -0.2 -0.31 -0.2 -0.32 -0.19 -0.31 -0.2 -0.33 -0.19 -0.32 -0.2 -0.33 -0.19 -0.32 -0.19 -0.34 -0.19 -0.34 -0.19 -0.34 -0.19 -0.34 -0.19 -0.35 -0.19 -0.35 -0.18 -0.35 -0.18 -0.36 -0.17 -0.35 -0.18 -0.36 -0.18 -0.36 -0.17 -0.37 -0.17 -0.37 -0.17 -0.37 -0.16 -0.36 -0.17 -0.38 -0.17 -0.38 -0.16 -0.37 -0.17 -0.41 -0.16 -0.38 -0.15 -0.38 -0.16 -0.41 -0.16 -0.41 -0.15 -0.39 -0.15 -0.4 -0.15 -0.41 -0.15 -0.41 -0.14 -0.41 -0.14 -0.4 -0.14 -0.42 -0.14 -0.43 -0.14 -0.43 -0.13 -0.42 -0.13 -0.42 -0.13 -0.44 -0.13 -0.43 -0.13 -0.44 -0.13 -0.45 -0.12 -0.44 -0.12 -0.44 -0.12 -0.44 -0.12 -0.46 -0.12 -0.46 -0.11 -0.45 -0.11 -0.46 -0.11 -0.46 -0.1 -0.46 -0.1 -0.48 -0.1 -0.48 -0.1 -0.47 -0.09 -0.47 -0.09 -0.48 -0.09 -0.48 -0.09 -0.48 -0.09 -0.5 -0.08 -0.49 -0.08 -0.49 -0.08 -0.51 -0.07 -0.48 -0.07 -0.5 -0.07 -0.52 -0.07 -0.5 -19.78 2.68 0.09 0.62 0.09 0.6 0.09 0.61 0.1 0.62 0.1 0.6 0.1 0.61 0.11 0.6 0.1 0.59 0.11 0.6 0.11 0.6 0.12 0.6 0.12 0.59 0.12 0.59 0.12 0.58 0.12 0.57 0.13 0.58 0.13 0.58 0.14 0.58 0.14 0.58 0.14 0.56 0.14 0.56 0.15 0.57 0.15 0.56 0.16 0.57 0.16 0.55 0.16 0.55 0.17 0.56 0.16 0.54 0.17 0.55 0.18 0.55 0.17 0.54 0.18 0.53 0.18 0.53 0.19 0.55 0.19 0.53 0.19 0.52 0.19 0.52 0.2 0.53 0.2 0.53 0.2 0.51 0.2 0.5 0.21 0.53 0.21 0.52 0.2 0.49 0.22 0.51 0.22 0.5 0.22 0.5 0.23 0.51 0.22 0.49 0.23 0.49 0.23 0.49 0.23 0.48 0.24 0.48 0.24 0.49 0.24 0.48 0.25 0.48 0.25 0.47 0.25 0.46 0.25 0.47 0.26 0.46 0.26 0.46 0.26 0.46 0.27 0.47 0.27 0.45 0.27 0.45 0.27 0.44 0.28 0.45 0.28 0.44 0.28 0.44 0.29 0.44 0.28 0.42 0.3 0.45 0.29 0.42 0.29 0.41 0.3 0.43 0.3 0.42 0.3 0.41 0.31 0.42 0.3 0.4 0.3 0.4 0.32 0.41 0.31 0.39 0.32 0.4 0.33 0.4 0.32 0.39 0.33 0.39 0.32 0.37 0.32 0.37 0.34 0.39 0.34 0.37 0.34 0.37 0.34 0.37 0.34 0.36 0.36 0.37 0.35 0.36 0.34 0.35 0.36 0.35 0.35 0.34 0.36 0.35 0.38 0.36 0.36 0.33 0.35 0.32 0.37 0.33 0.38 0.34 0.37 0.32 0.37 0.31 0.38 0.32 0.37 0.31 0.38 0.31 0.4 0.31 0.37 0.29 0.39 0.3 0.41 0.31 0.38 0.28 0.39 0.28 0.41 0.29 0.39 0.28 0.39 0.27 0.42 0.28 0.41 0.27 0.39 0.25 0.42 0.27 0.42 0.26 0.42 0.26 0.42 0.25 0.41 0.24 0.42 0.24 0.44 0.25 0.42 0.23 0.41 0.22 0.46 0.24 0.42 0.22 0.42 0.22 0.44 0.22 0.43 0.21 0.44 0.21 0.44 0.2 0.45 0.21 0.44 0.19 0.43 0.19 0.45 0.19 0.45 0.19 0.46 0.18 0.44 0.17 0.46 0.17 0.46 0.17 0.45 0.16 0.46 0.16 0.46 0.16 0.46 0.15 0.47 0.15 0.46 0.14 0.45 0.14 0.47 0.13 0.47 0.13 0.48 0.13 0.48 0.12 0.46 0.11 0.47 0.11 0.48 0.11 0.46 0.1 0.48 0.1 0.48 0.1 0.48 0.09 0.48 0.09 0.49 0.08 0.47 0.08 0.49 0.08 0.49 0.07 0.49 0.07 0.49 0.06 0.47 0.06 0.51 0.06 0.49 0.05 0.47 0.04 0.49 0.04 0.49 0.04 0.5 0.03 0.5 0.03 0.5 0.03 0.5 0.02 0.48 0.02 0.5 0.01 0.51 0.01 0.5 0 0.48 0 0.5 -0 0.52 -0.01 0.5 -0.01 0.48 -0.02 0.5 -0.02 0.5 -0.03 0.5 -0.03 0.52 -0.04 0.5 -0.04 0.49 -0.04 0.5 -0.05 0.52 -0.05 0.5 -0.06 0.51 -0.06 0.5 -0.06 0.5 -0.07 0.51 -0.07 0.5 -0.07 0.5 -0.08 0.5 -0.08 0.51 -0.09 0.5 -0.09 0.52 -0.1 0.51 -0.1 0.5 -0.1 0.5 -0.11 0.51 -0.11 0.52 -0.12 0.5 -0.12 0.51 -0.13 0.51 -0.13 0.5 -0.13 0.5 -0.14 0.5 -0.14 0.52 -0.15 0.51 -0.15 0.5 -0.15 0.52 -0.16 0.5 -0.16 0.51 -0.17 0.51 -0.17 0.5 -0.17 0.52 -0.18 0.52 -0.19 0.5 -0.19 0.49 -0.19 0.52 -0.2 0.52 -0.21 0.49 -0.2 0.51 -0.21 0.51 -0.21 0.5 -0.21 0.52 -0.22 0.52 -0.23 0.49 -0.22 0.51 -0.23 0.52 -0.24 0.5 -0.24 0.51 -0.24 0.5 -0.25 0.51 -0.25 0.52 -0.26 0.5 -0.26 0.5 -0.26 0.51 -0.27 0.5 -0.27 0.5 -0.27 0.51 -0.29 0.51 -0.29 0.5 -0.29z"/>
   <path class="fil29" d="M1276.57 1454.2c-15.04,8.67 -24.27,21.07 -30.72,32.85 -6.64,11.82 -11.01,22.49 -17.29,30.93 -4.13,5.56 -9.11,10.59 -16.79,15 -11.55,6.52 -18.27,5.91 -25.48,3.61 -7.1,-2.42 -14.27,-7.56 -24.83,-8.44 -6.83,-0.58 -15.23,1.31 -25.02,6.95 -3.76,2.19 -6.37,7.87 -5.76,12.47 0.65,4.8 4.32,6.83 8.1,4.64 11.66,-6.6 18.26,-5.87 25.48,-3.57 7.08,2.38 14.29,7.52 24.83,8.44 6.79,0.46 14.83,-1.11 24.29,-6.56 15.66,-9.02 24.91,-21.45 31.45,-33.27 6.51,-11.74 11,-22.49 17.17,-30.85 4.24,-5.64 9.12,-10.59 16.89,-15.08 11.57,-6.52 18.15,-5.79 25.36,-3.49 7.1,2.38 14.28,7.52 24.71,8.52 6.77,0.42 14.83,-1.11 24.29,-6.56 15.64,-9.06 25.02,-21.53 31.43,-33.27 6.66,-11.82 11.01,-22.49 17.17,-30.89 4.26,-5.6 9.13,-10.59 16.9,-15.08 11.43,-6.41 18.15,-5.79 25.25,-3.41 7.21,2.3 14.39,7.48 24.83,8.44 6.77,0.46 14.83,-1.07 24.27,-6.56 15.66,-9.02 25.04,-21.49 31.45,-33.27 6.64,-11.82 11.01,-22.45 17.17,-30.85 4.26,-5.6 9.12,-10.59 16.79,-15 3.88,-2.22 6.49,-7.9 5.83,-12.7 -0.61,-4.61 -4.3,-6.64 -8.17,-4.41 -14.93,8.59 -24.18,21.03 -30.58,32.81 -6.64,11.82 -11.01,22.49 -17.31,30.93 -4.11,5.52 -8.98,10.48 -16.77,15 -11.55,6.48 -18.15,5.79 -25.36,3.49 -7.08,-2.38 -14.28,-7.56 -24.83,-8.44 -6.83,-0.54 -15.23,1.31 -24.91,6.91 -15.04,8.67 -24.29,21.07 -30.7,32.85 -6.64,11.82 -11.01,22.49 -17.3,30.93 -4.11,5.52 -8.98,10.51 -16.77,15 -11.55,6.53 -18.15,5.83 -25.36,3.49 -7.08,-2.38 -14.27,-7.52 -24.83,-8.44 -6.83,-0.54 -15.23,1.34 -24.88,6.91z"/>
   <path class="fil1" d="M3478.35 376.3c-34.87,20.1 -56.26,48.83 -71.2,76.14 -15.39,27.39 -25.52,52.12 -40.07,71.69 -9.56,12.9 -21.12,24.55 -38.91,34.78 -26.77,15.12 -42.34,13.69 -59.06,8.36 -16.46,-5.61 -33.09,-17.52 -57.55,-19.57 -15.84,-1.34 -35.31,3.02 -57.99,16.1 -8.72,5.07 -14.77,18.23 -13.34,28.91 1.51,11.12 10.01,15.83 18.77,10.76 27.04,-15.3 42.34,-13.61 59.06,-8.27 16.41,5.51 33.13,17.43 57.55,19.57 15.74,1.07 34.38,-2.58 56.31,-15.21 36.29,-20.9 57.72,-49.72 72.89,-77.11 15.07,-27.22 25.48,-52.13 39.8,-71.51 9.83,-13.08 21.12,-24.55 39.14,-34.96 26.81,-15.12 42.07,-13.43 58.79,-8.09 16.45,5.51 33.09,17.43 57.28,19.74 15.7,0.98 34.38,-2.58 56.3,-15.21 36.25,-20.99 57.99,-49.9 72.85,-77.12 15.43,-27.4 25.53,-52.12 39.8,-71.6 9.87,-12.98 21.17,-24.55 39.18,-34.95 26.5,-14.85 42.07,-13.43 58.52,-7.92 16.72,5.34 33.36,17.35 57.55,19.57 15.7,1.07 34.38,-2.49 56.26,-15.21 36.29,-20.9 58.04,-49.81 72.89,-77.11 15.38,-27.4 25.53,-52.03 39.8,-71.51 9.87,-12.99 21.12,-24.55 38.91,-34.78 8.98,-5.16 15.03,-18.33 13.52,-29.44 -1.42,-10.67 -9.96,-15.39 -18.95,-10.23 -34.6,19.92 -56.03,48.74 -70.89,76.05 -15.39,27.4 -25.53,52.12 -40.12,71.69 -9.52,12.81 -20.81,24.28 -38.87,34.78 -26.77,15.03 -42.07,13.43 -58.79,8.09 -16.41,-5.51 -33.09,-17.52 -57.55,-19.56 -15.83,-1.25 -35.31,3.02 -57.72,16.01 -34.87,20.1 -56.31,48.83 -71.16,76.14 -15.39,27.4 -25.53,52.12 -40.12,71.69 -9.52,12.81 -20.81,24.37 -38.87,34.78 -26.77,15.12 -42.07,13.52 -58.79,8.09 -16.41,-5.51 -33.09,-17.43 -57.55,-19.57 -15.84,-1.24 -35.31,3.11 -57.68,16.01z"/>
  </g>
 </g>
</svg>
